<mxfile host="app.diagrams.net" modified="2021-10-27T00:55:02.221Z" agent="5.0 (Windows NT 10.0; Win64; x64) AppleWebKit/537.36 (KHTML, like Gecko) Chrome/95.0.4638.54 Safari/537.36" etag="gxaeJsLDg0pHFwmpI9pM" version="15.4.1" type="github">
  <diagram id="VIENtzazLE-qeyd-ph0o" name="Page-1">
    <mxGraphModel dx="1024" dy="736" grid="1" gridSize="10" guides="1" tooltips="1" connect="1" arrows="1" fold="1" page="1" pageScale="1" pageWidth="1169" pageHeight="827" math="0" shadow="0">
      <root>
        <mxCell id="0" />
        <mxCell id="1" parent="0" />
        <mxCell id="FIquFdigFKZRtTVGUvSn-5" value="Audio Engine" style="swimlane;" parent="1" vertex="1">
          <mxGeometry x="40" y="286" width="200" height="210" as="geometry" />
        </mxCell>
        <mxCell id="FIquFdigFKZRtTVGUvSn-6" value="&lt;i&gt;n &lt;/i&gt;second input buffer" style="rounded=1;whiteSpace=wrap;html=1;" parent="FIquFdigFKZRtTVGUvSn-5" vertex="1">
          <mxGeometry x="40" y="30" width="120" height="60" as="geometry" />
        </mxCell>
        <mxCell id="FIquFdigFKZRtTVGUvSn-7" value="Playback of sound file info" style="rounded=1;whiteSpace=wrap;html=1;" parent="FIquFdigFKZRtTVGUvSn-5" vertex="1">
          <mxGeometry x="40" y="120" width="120" height="60" as="geometry" />
        </mxCell>
        <mxCell id="FIquFdigFKZRtTVGUvSn-8" value="Note Preparation" style="swimlane;" parent="1" vertex="1">
          <mxGeometry x="370" y="286" width="200" height="210" as="geometry" />
        </mxCell>
        <mxCell id="FIquFdigFKZRtTVGUvSn-28" style="edgeStyle=orthogonalEdgeStyle;rounded=0;orthogonalLoop=1;jettySize=auto;html=1;exitX=0;exitY=0.5;exitDx=0;exitDy=0;entryX=1;entryY=0.5;entryDx=0;entryDy=0;" parent="FIquFdigFKZRtTVGUvSn-8" source="FIquFdigFKZRtTVGUvSn-9" target="FIquFdigFKZRtTVGUvSn-11" edge="1">
          <mxGeometry relative="1" as="geometry" />
        </mxCell>
        <mxCell id="FIquFdigFKZRtTVGUvSn-9" value="Split buffer by note event onsets" style="rounded=1;whiteSpace=wrap;html=1;" parent="FIquFdigFKZRtTVGUvSn-8" vertex="1">
          <mxGeometry x="40" y="130" width="120" height="60" as="geometry" />
        </mxCell>
        <mxCell id="FIquFdigFKZRtTVGUvSn-27" style="edgeStyle=orthogonalEdgeStyle;rounded=0;orthogonalLoop=1;jettySize=auto;html=1;exitX=0.5;exitY=1;exitDx=0;exitDy=0;entryX=0.5;entryY=0;entryDx=0;entryDy=0;" parent="FIquFdigFKZRtTVGUvSn-8" source="FIquFdigFKZRtTVGUvSn-11" target="FIquFdigFKZRtTVGUvSn-9" edge="1">
          <mxGeometry relative="1" as="geometry" />
        </mxCell>
        <mxCell id="FIquFdigFKZRtTVGUvSn-11" value="Combine leftover from last buffer with new buffer" style="rounded=1;whiteSpace=wrap;html=1;" parent="FIquFdigFKZRtTVGUvSn-8" vertex="1">
          <mxGeometry x="40" y="30" width="120" height="60" as="geometry" />
        </mxCell>
        <mxCell id="FIquFdigFKZRtTVGUvSn-12" value="AI Classification" style="swimlane;" parent="1" vertex="1">
          <mxGeometry x="640" y="286" width="210" height="210" as="geometry" />
        </mxCell>
        <mxCell id="FIquFdigFKZRtTVGUvSn-30" style="edgeStyle=orthogonalEdgeStyle;rounded=0;orthogonalLoop=1;jettySize=auto;html=1;exitX=0.5;exitY=1;exitDx=0;exitDy=0;entryX=0.5;entryY=0;entryDx=0;entryDy=0;" parent="FIquFdigFKZRtTVGUvSn-12" source="FIquFdigFKZRtTVGUvSn-13" target="FIquFdigFKZRtTVGUvSn-14" edge="1">
          <mxGeometry relative="1" as="geometry" />
        </mxCell>
        <mxCell id="FIquFdigFKZRtTVGUvSn-13" value="Extract STFT" style="rounded=1;whiteSpace=wrap;html=1;" parent="FIquFdigFKZRtTVGUvSn-12" vertex="1">
          <mxGeometry x="40" y="30" width="120" height="60" as="geometry" />
        </mxCell>
        <mxCell id="FIquFdigFKZRtTVGUvSn-14" value="Classify note event" style="rounded=1;whiteSpace=wrap;html=1;" parent="FIquFdigFKZRtTVGUvSn-12" vertex="1">
          <mxGeometry x="40" y="120" width="120" height="60" as="geometry" />
        </mxCell>
        <mxCell id="FIquFdigFKZRtTVGUvSn-47" value="&lt;i&gt;STFT data&lt;/i&gt;" style="text;html=1;strokeColor=none;fillColor=none;align=center;verticalAlign=middle;whiteSpace=wrap;rounded=0;" parent="FIquFdigFKZRtTVGUvSn-12" vertex="1">
          <mxGeometry x="110" y="95" width="40" height="20" as="geometry" />
        </mxCell>
        <mxCell id="FIquFdigFKZRtTVGUvSn-26" style="edgeStyle=orthogonalEdgeStyle;rounded=0;orthogonalLoop=1;jettySize=auto;html=1;exitX=1;exitY=0.5;exitDx=0;exitDy=0;entryX=0;entryY=0.5;entryDx=0;entryDy=0;" parent="1" source="FIquFdigFKZRtTVGUvSn-6" target="FIquFdigFKZRtTVGUvSn-11" edge="1">
          <mxGeometry relative="1" as="geometry" />
        </mxCell>
        <mxCell id="FIquFdigFKZRtTVGUvSn-29" style="edgeStyle=orthogonalEdgeStyle;rounded=0;orthogonalLoop=1;jettySize=auto;html=1;exitX=1;exitY=0.5;exitDx=0;exitDy=0;entryX=0;entryY=0.5;entryDx=0;entryDy=0;" parent="1" source="FIquFdigFKZRtTVGUvSn-9" target="FIquFdigFKZRtTVGUvSn-13" edge="1">
          <mxGeometry relative="1" as="geometry" />
        </mxCell>
        <mxCell id="FIquFdigFKZRtTVGUvSn-44" value="&lt;i&gt;n*22050&lt;br&gt;samples&lt;br&gt;&lt;/i&gt;" style="text;html=1;strokeColor=none;fillColor=none;align=center;verticalAlign=middle;whiteSpace=wrap;rounded=0;" parent="1" vertex="1">
          <mxGeometry x="280" y="316" width="40" height="20" as="geometry" />
        </mxCell>
        <mxCell id="FIquFdigFKZRtTVGUvSn-45" value="&lt;i&gt;technique&lt;br&gt;labels,&lt;br&gt;waveform&lt;br&gt;&lt;/i&gt;" style="text;html=1;strokeColor=none;fillColor=none;align=center;verticalAlign=middle;whiteSpace=wrap;rounded=0;" parent="1" vertex="1">
          <mxGeometry x="870" y="306" width="40" height="20" as="geometry" />
        </mxCell>
        <mxCell id="FIquFdigFKZRtTVGUvSn-46" value="&lt;i&gt;waveforms&lt;br&gt;of note events&lt;br&gt;&lt;/i&gt;" style="text;html=1;strokeColor=none;fillColor=none;align=center;verticalAlign=middle;whiteSpace=wrap;rounded=0;" parent="1" vertex="1">
          <mxGeometry x="570" y="316" width="80" height="20" as="geometry" />
        </mxCell>
        <mxCell id="FIquFdigFKZRtTVGUvSn-50" style="edgeStyle=orthogonalEdgeStyle;rounded=0;orthogonalLoop=1;jettySize=auto;html=1;exitX=0.5;exitY=1;exitDx=0;exitDy=0;entryX=0;entryY=0.5;entryDx=0;entryDy=0;startArrow=none;" parent="1" source="FIquFdigFKZRtTVGUvSn-51" target="FIquFdigFKZRtTVGUvSn-6" edge="1">
          <mxGeometry relative="1" as="geometry" />
        </mxCell>
        <mxCell id="FIquFdigFKZRtTVGUvSn-59" style="edgeStyle=orthogonalEdgeStyle;rounded=0;orthogonalLoop=1;jettySize=auto;html=1;exitX=1;exitY=0.5;exitDx=0;exitDy=0;entryX=0;entryY=0.5;entryDx=0;entryDy=0;" parent="1" source="FIquFdigFKZRtTVGUvSn-48" target="FIquFdigFKZRtTVGUvSn-53" edge="1">
          <mxGeometry relative="1" as="geometry" />
        </mxCell>
        <mxCell id="FIquFdigFKZRtTVGUvSn-48" value="" style="shape=image;verticalLabelPosition=bottom;labelBackgroundColor=#ffffff;verticalAlign=top;aspect=fixed;imageAspect=0;image=https://images.all-free-download.com/images/graphiclarge/electric_guitar_vector_6815902.jpg;" parent="1" vertex="1">
          <mxGeometry x="99.99999999999997" y="610" width="173.33" height="95" as="geometry" />
        </mxCell>
        <mxCell id="FIquFdigFKZRtTVGUvSn-53" value="" style="shape=image;verticalLabelPosition=bottom;labelBackgroundColor=#ffffff;verticalAlign=top;aspect=fixed;imageAspect=0;image=data:image/png,iVBORw0KGgoAAAANSUhEUgAAAgAAAAIACAYAAAD0eNT6AAAAAXNSR0IArs4c6QAAAERlWElmTU0AKgAAAAgAAYdpAAQAAAABAAAAGgAAAAAAA6ABAAMAAAABAAEAAKACAAQAAAABAAACAKADAAQAAAABAAACAAAAAAAL+LWFAABAAElEQVR4Aey9CZglSVkuXOecmuqu7llomWaGGYbuKRoYLGSxgJZhYJxxRMsFcYGrqKg/il6vC274X/E+LtftuqDXqyP/r15wuW4FKioWIio0M8AAxTIwAwPTRTf0rMD0LN1d3dVVde77Zp7IE5knIjMyT1b1qZNvPE+ciIzli4jveyO+OBGRGRMTMuKAOCAOiAPigDjQOA60amhx6+d//ucTOvB3QZO2qhE98a8MdoQX4UV48XNA/UP9w4uOSW9MQMRLXvKSDpPddtttduoN+6GMX/Qibol/gaARXoSXQKhEyYQX4UV4SXMg+eeeDi58an35l39555FHHknyX3DBBd13vOMd68hZ5d+/6Il/haCzEggvwosFh0Kv8CK8FILEStAYvCQK3Gp8kbc1Nzc3OTMzk+RdXl7uLi0trSFjJeUveuJfEeiseOFP/c2CQ6FXeBFeCkFiJWgUXqIlfKvxRd7W/Pz8VBvm1KlTLdputztx6NChs8hYSfmLnvhXBDorXvhTf7PgUOgVXoSXQpBYCZqGl4nkX7zFBJ+XyyI7zpw5k+TZsWMHl/3PIEMl5S964p8PbI5w4U/9zQELb5DwIrx4weGIaBpeyIJW0AoATva3scc/jQxtKP0W7YUXXjhx9dVXn8EEoLTyFz3xz9EBvUHCi/DiBYcjQngRXhyw8AY1DS9gRIsHYl/60pdOFL4FQOa8+93vnl5dXU3++U9NTXWxb38acaVPrIvexIT45+2LAxHCi/AyAIqcAOFFeMmBx0BU0/ACBnClg3/8oz/u7QGOWAGGOR2Y6enpNi2j8c9/BXGVlD9WDHaJnvhnwczrJf6EF/U3L0AyEcKLxucMJHIfm4YXMCM64Gi/vZe3BdDisv/Kykr7vPPOa509e7YFxT1xzTXXnKyq/G+55ZbzUYn2xsZGi1b0cvGZiiRYxT/hLwWKnAfhReNLDjwGooSX8cYLBB4dcLzkkksmjh8/PrFnz57ujTfe2PWtAAwciMAkoHvw4METwyh/TiIM8kTPcKLYNZ1T/BP+itEyMSG8TExofAlBSpxGeBl/vPDAPf7MJ/q3hw7nBCCaKdin/ZFxQ8o/rEOpM41/Z+JKjCZjmoyFjAgaDzQehODEpNkMvOAbPTttfc6P9i0sLPCjfQOHAKM9AnumwANrw+z5a7DUyokBd5G7GeAX/oS/ItyZeOFPytpgIcTdDnjhAf5eW6JDf72P9kXKn+GpLQCeDrS/8Mf3/KX8Q6CgZVdyScuuYVhhqu0weGjypMlTKKKF59Eb/3iA2n57D4f4B77Ym0wA+F6gfTqQyn+YV/00eGjw0ODh5oAGy9EbLDVeabxy99bB0O3Sf81be2wB9fni4uIqvKnv9pjvAKQOB3CmwMRVP/KjzqTONNht3CHbpTNpz197/m4Ep0OFZ03u0ojIf9pMvHBFlqVT+b/tbW9zfrE3WgFAJZIJAPcIXDOF/GbEsZvZGFO+lpkNJ4pdyUODUTFK+imEF+Glj4Zin/Ay+ngxH52DNFP//I10ky0ABvB0YNVb/QSG0QeDJk8G9sWu8Cw8F6Okn0J4EV76aCj2bQVe+PZe0Rk+swUQ1RhL/jwd6Jwp5DVpKxoj5ZUngXSc5KHBKI2I/CfhRXjJR0g6VnjZHnjBR/tOQVa5X+w1S/90Syt+wkJg2B5g0Hcc0oOY70l4Fp592HCFCy/CiwsXvrBRw4uZAPjqmxs+ao3JVlb1U+fMYiLvWXgRXvLwkY0TXoSXLCbynkcRL5UnAKPYGJv5qp86p42HIr/wIrwUYcSOF16EFxsPRf5RxUulCcCoNsYIQfVT5zRYCHGFF+ElBCcmjfAivBgshLijjJfSE4BRbgyFofqpc+Z0yscg7mJY3kq5G7YzOTmJa66ndsJr9YX17srK6um1tbXcAzTIP2BEjyzZdvzj+Sd+JOVh2Pt61nkmSuOLxhfgI9iMOl6sQa+4TaPeGNVPndNCMZX99bDXwT4T9kmwF8EmptVqTXQ6fBPW7gbdifX1jYlu1zn+J3ldHtEjV8aCfytoyCdgPwB7M+zbYO/R+KLxBTgINqOOFzbEHvlyGzbqjVH91DkBYCr4l8K+HPZ5sF58S1mDO+OhrNmQAVOzfLug996dO3e+8bLLLlu48soruVKguy8GuO4P0Pg8WnjpSQp/gQKMhDdawpM8BuRxKWD8E7A/AMvl/VxTs3KYED2yeyz++Ttxk5HvyU6n82cXX3zBb3/f9/3QneiLpbeJ1H8H+q+T775A8W84/oGvLdz9056dne0WTgDIbN4qhL3NjhGIPspjOFHsCqzDgbWAfzsggZ+F/XFY7OMXm8xg3svQGOWl9hZDJJUiBy8r2Cb6bST+FdiTqUw5DwV41mQih3eMEv+GG0/BwhZv/d27d2+XE4DUp4CzvCezeZ+wfauQlH+WS/5ngXU4sBbw7wZw/nbYn4GV8nfAMEd56YyDg1/ZoAL+8Z51Yu82WGKx0BTgWcq/gIPi33DjKdjbwg2/k/atv8m/egfvW7gbYBrfE25D6bc2NjZaUv4OLnmCBNbhwOrj32c+85nTCwsLvwS2/wHsHg/7B4ILBvOB9EUBokcOaeUETHgU7HfCcuvpP2CdityHZ32hExwLMOLfcOMpWNyan5+fuuSSSyaOHz8+sWfPnu6NN97YTd0FYMmBywQ7zpw5k2wRSPlb3CnwCqzDgdXHP6xGdR566KG3gv3XFYggFS1lTXZIWadAkfNQAS8cJ38S9kthvxn2QdjE+PAs5Z+wKNcj/g0/nmIbfwp/5ifOP/98+/Um5xZANFOwlT9vFRJYczGaRAqsw4P1lltuOf/s2bOpyec73/nO86H8+Q9Lyj9B26CngvIaJGKFiB6ZETx54mun74K9hLloNB5sznggfRTjq+iX+MMNvzttfc5bf7GKyov/Bl6TivYIkKDDDHCjMwJFVwr6KiHwC/w+bLjCfXh517vetfPEiROHkOfJrny+MCkvciZYeQ2wUfyrzD9+Q+AFwPMXXJNZKa8BqDkDfOOB+Odk10Ag+cczfIzAvv/Gjh07unDXMSFYQ1C0EpA6A4Bl/8nHPe5x7VOnTrXW19dbF1544QSYfRqEnPtaAyVaARKelL8Fh0KvDy8YQCd6y/5PKyRiJZDyIjOk/C1I5HprxsvFoHf95z535M27dj2Kg21ktI1qOFHs+sYDKf9i3jEF+ce396jH8drqxOrqapf//A8dOnQW0ck2QPIWAN4L7NinAzlbwIlBKf8AfgusmzfZeeCBB/4EInh2gBiSJDUP5nrPP+KsJhMJwAo8PfzNfepTd/9/JqmUv+FEsavxtJ7x1H57j/p8cXGRn7tOlD8lYSYAyX4rA5Gxi9nDGQhC//zJkBwjsNYD1uyef2+m/yNg/Ytz2D8QJeVPlkhZDwDDE7CZeMGbUy+66aabflDK38N8R7DG0/rHUyp/6nOwO6X8yf5I8ZPpt912W2t5eTmaENh7BA4ZeYMkvPqF1+DBYxZAW4I9zwu4TMRmDub9oqRc+7zI90keEX/OtNvtOSzB8nsBpYzGU42nZQCTxQt1B7YA1vPO8JkVgKgc7hFI+YexPMts5mqwsq57pYgzVb7nL+VPYDmMlCuZsh0mY+s7oPxf5xBhbpDGF42nuQDJRLrwwrf38pQ/SaQmAFgm4KsBA8sEmbIGHl2FSxkOsMkbIP4NdHZ+WIWX+QQZKUOyaTsow8besngNBPStQWBGIo0HA+NBKOuidOJfzD8c6j8FXuT+OTN7/3RLK35yW8wWWKNeF/gTgBe+mXIH7BNCSEr5k0tS/iFYYZpziJc7UfxTYJO3AlifrAnoH9ksuc+ip/E5DyBmBUDKP49LvTh1pi3pTPynJOXvwOM5VF6O2gwGqX7kiXcydgCRLxnkWj9E48uWjC99hhf4miAPswJQwIrB6CYwx2612rtlnfMD4PuczXuXv6KyeQi0bob9FCzvdE+Wx3BQqzU1NTmFXTGrT2x0V1fXVnGau/QEWfTA3Yltxb8LUWF+aIpbTxfB5pqK+HsviD7XRVjjy5aNLy72D4Q1RR7WYDfAA29AU5hjGKD2blnn5Mn/jxm++9wKg+8toPVrsG+B5YcwUkby3TL5pvjuezjH8uDB06+D/a+wzu9PVMCf3VRinLdYJuYctzeph8+j+o1v/zBbAD7ZD4QLDOMLBgr7HMv3OwYAlwkoOfieQvZXwvJf19/DSvnjlV99nva8bs4X5YiRv4M9CPuDsKdhE1MSf0k+y5M6DHiO+5tVLbdX9Rvv8b7UCoDAMN5gGAH53oph6EvcQ1HpA1y8ke2rYfnv32lGoL3OeplA1W8k+tvVkMci7IU1KH+K9sOwz6RH8h0J+VIUkWmaPNjo4AlA05ij9m5557wYeLzfh8mSgy9PWt8A+05Yp5F8t1y+TjmYwBGXxw3A31s7nTbeULGHTO+BP9Msl8vzJHvR3uNaicldiXHxLgkbcbxMjHr9eoxs8ZWrQjPqjVH9xmIw/yoAMbU8aoBZUvkz26/Avt7kz7rCy1jgJSvW5HkT5Hvk5ptvfhQK+LKkEP9p/34St4+Xs9y8c+fOuz2fv04OprqzD4ZuQnu1TYSv6OVsEw0KwQoZdXmgqi3e/fPSl740/SEgqw2Jl43hrUIC68ET4IU6Z4IMt2cI8PNw1ICpoPy5ivCrA4R6AUPUz0lS9Joxmdi3b99vAQAPxCCo9M8/yko84yNpz9J4qvHUOaBkAuseX0C+hQ8EJX/8cw8BsnDeJ2zfKqQv/GUklPNYt/DGnB5fwUqZCsqf+f8Ilof/BsyY80/t3cQDjvv3738E/9z/POc9/wH+ZwMMnvFa6RNNnMZTw4liV/13uMk2ONzCDb+T9q2/eROAFu4F2InvWCebXgJrMUhNCoG1NFivNLyjawZL+KzgoH9ePME9YCSP0vJI8VD8m5jYuXPyH9fXh/+ccbfbfRyZq/E0BbHcB+FvOLyAua35+fmpmZmZZEAFT7u+CQCXCXacOXMmSSyw5uIzFSmwVgIrP8QSmSGUP1/h4inrlJE8Kskj4aH4F/Nvz569N0F5876UUsaB50drPA1nofA3fP+lPsflQIk+73HfOQGIZgq28uetQuN6IELgGh5cNZ1mvoCgdAyWCA3658/s98DyDYDESL4jI99IJttZHkeOHOE3Ae5NwBXgceN5YpfG0wDmIcl2xgvqPhJnxriSb+tz3vq7sLAQTWSzM4JojwAJOswAN1ohKLpS0CdKCU+Drw8bjvB7MFheiletEGXDMlj5kyQvEbqKHhrhT/iLkRD2G4iXO0Ft2LsqjmEl4YqwWvVTBdavn6HAJ3rj3z94ho8wwL7/xo4dO7pw1zEh4J+k6PPmqS0Ang609wiYQcq/oBf1otWZhutMUP54PWoo5Z8SlOQxnDzEv+H45/7nn0xm7RluCre+B8ljOHk0kX98e88+w4fD/F1b+RNryQSA7wXapwOp/HFi8DQYNxLLGDUtM0f9q4lgGHX+4YQ1BkV7XEwGS9+Y6A2XfDVYesHhiKgbLwXK31GD/KC66yd6zegf9tt71OeLi4urQFrqYrPJHvTskXeCMwUmxgwilTgfpnGswNUMcNX9HnMaW1L+aX74n9TfRqu/SfmPljya3D940JQjB5X/2972tjPwDujzaAUATEomAMvLy86Zgn8I6sc0mdmGCzrdazhR7LrwUuLA30ABHHxHfaVD9RvfL6xJ+Uv5DwxKOQGu8a9u/TE1NRWt5KMaA8qfVUu2APjA04HZPQKGh5itaEzdzBG9EMnGabZCvsMqf2wjtOtemRA9fbEtpJdI+Uv5h+DEpNmK8ZRv7xWd4TNbAFG9sOTPVwOcMwVTcZe7FY2RsnZx3h22HeXBlgz7kRUsACRGeElYUejZjngZJflK+Uv5F3YyK8FW9bdrrrnmFMrKPcMXTQCQiEo/N6FV/5R3qxqj92ZTbPc+bFd5rK+v482o0nNP53cDRkk5bFd5qL95u1gqQspfyj8FiIKHURsPzBZA+ZEXDR21xmR5r/ptn84p5Z9F7+Cz8DxaeJbyHy15qH+Ul4eZAAyONgUhYnZ5ZtssFf+G459r8OUCgv652ijz+4W/+vE3zBkWyWM4eYh/1fhn7Zr6B4tsTN3MxgeIJtfWvnDB6up0MiGZmlrZOH584+Rtt91Wemtidna2vWdPe7fobSv+HQPOLslizfXsUv69wfcOrCQ81ZUnL0x4mZhQf8tDSCruE8DfE4b8aNVdoLjfUBX+moi/qY0bbrjhIejS0vqtTv1begIwROEc3K+DfSYsr359Euyj0ZkuQGfC5wrtqlR/DzxHOUzUtcw8zExf9YPUcc502AN/wsvwt9JRErGRPAwnilz1X3JIeCnCiYkvwAsP3T8Mex/sEdjbYT8AexPsZ2EHzBD6d4AWA2yt60xgB1YonN/MfjnsN8PO2rToL2BONnnhs+iRReqchUDpJRBehJdQrDCd8CK8bCFeOBng1eZ/DvsJlltB/zJbrunkxlqRJQufR9Y/gn0t7LWwj4FNGXUmskPKOgWKnAfhRXjJgcdAlPAivAyAIidgBPGyF9V9AewPwV6Hb5wc37lz5911fZekxwr7zelekMMpofyvR/bfgP1SB5kkaASZndSNHtWPXNDkhFwIMcILuSS8hGCFaYQXckF4IRdCjMFLq9X+CCYB/w0HnQ8N86ozymzh7p82zp50C7cAqPx5q9Dk5GSyWuAo/FIQ/W3Yby1qkGkM6mAlFRgsZuR6xT+yR3jJBYkVKbwILxYcCr3Cy3bAy8Tf4vv+/+XkyZP3Fgp0MEGLt/7u3bu3ywlAcup+MF2858D7hO1bhRzK/4XIeyuslH+GiepMZIiUdQYW3kfhRXjxgsMRIbw0FS/r3wTl/xG0nlvtZUwLN/xO2rf+Jv/qHVRauBtgGt8TbkPptzY2NloO5f/zyPeHsLsd+VNBAivZIWWYAkXOg/AivOTAYyBKeBFeBkCREzAGeKHOfRks3yQ4lNNUE9Wan5+fuuSSSyaOHz8+sWfPnu6NN97Y9U0AuEywAznb+EQrFX8LhxDsj6wwHxX/j8Haa/l4HDRjwOzBRuWEqL1kjiY7ORBJRQkvwksKEAUPwovw0oMIdS/P3e2D/SdY5xd9uY2PuB1ra2ut3bt3d80E4Pbbb99wbQFEM4UzZ84kip23CllfWGOev4R9BWyhEVjJIinDQqD0EggvwksoVphOeBFehJeJ7wEP/g/swB96Kn/c8LvT1ue89XdhYYErBwMZoj2CNgz/+eOgQfTP//nPf/4KCJkvFr0O+fhuf6FR5ySLpPwLgdJLILwIL6FYYTrhRXgRXhIO8Auol8P+gwmh8ucZPury1dXVLg7yT9x3330b73nPeyLlz3SpFQCeDpyZmUn++WMC0M3cJ/wzyPNKU0Ceq85J7kj552HEjhNehBcbD0V+4UV4KcKIHd8QvHBV/tVsN5U/396D4k/0OQ7zd7EasIboZKsgWTLAe4EdzA7wDf09rVOnTrU4W4DyPwNC5p//lyPj62FTkwY8D5iGMDtpt9pLVmiykwCiwCO8CC8FEElFCy/CSwoQ+Q/XQ3ffhD/vn+fZPez7d3l+DxjaePvb376KrInyJxmjzJNZAgM5U8DswVb+X4Tgv4BNJgxM5zICK7kiZejChitMeBFeXLjwhQkvwosPG67wBuKFOvrP7rjjjkcZfnAln/oczynlz/hoAoB/+ckEYHl5ubu4uJidKfwa0j6WGfJMA5k9MeStYCl2in9khyZPKVDkPAgvwksOPAaihJem4GXismPHjv0CWzs1NdXFu/+n4R1Q/ow3KwD0T/B0YHaPAMEHYb+X8XlG4CJ3pLzyMGLHCS/Ci42HIr/wIrwUYcSObzpe8N2el990001Pz5zhs1kU+VMTACwT8HRgdqbwqwhLVggGKDASVwron7CUvwsbrjDhhVwRXlzYcIUJL8KLCxe+MOElwkv7xIkTP2ed4XOyyyh2ulnFzwzPhX03PT4jZpMzGsx9+MiGCy/CSxYTec/Ci/CSh49snPAygJerEfKeLJ/M82TP41L+jIpeKTCJs24NzH4YNO+EfQh2A/T49sHAQcO1tfX1Lky2/KLnc0DvMtTpKUX1MvE5/LsNzS190cM5aK9pSpCr+sVs2kZ4DpKrSST5Sr4GCw6XZ8i+2A7PGf8mcob720HjHpuO8W8z/PFP9wVo54H19Q26phnBbiD/+LVe7wTArAC4CuV9xHfBnueKDCzclfUEAv8I9s9hPwgbtRxLFe1bbrnl/LruOz5H9HhWgp9ILjQF/PtOECB/gs05aq/q5+GA5IGB47zzutYXRD2ccgeLf2PHv++GpF9vpF0w/plkLvd7EPiGbMR2xcv5559/El/lewbawzH/FbDnZ9vmei7Bv7PIzw8Efc5FJ3UGIJPg2/Bct/Lnq4QzsJyVLMGOk/JHc8JMCeEFEdyu4JdyCBLvhOQ7dsowJfimyVfjXx/PvU/yUhe+CvYJsH+TAofjoST/qMO/xUEmCsqbAHyDK1PJwg0JKvofhf122NRMROAni6qfIWga/9Te/uABXpiPdBFEQUb8E/+CgNJLVDdeKuoPb5Xrrt85pnc/GvqfYH/S1+CK/Huxj55vArATGXh4IGUqFk4aPwX7uylieDjHzM5WZ+C57voNwb+BujGg7vqJnpSDE2ieQOFFePFAwxms8S8YL78FBv5MlolD8O9a0NqRpcdn3wTgyxDHSUBihij870GEDUqZpg0eQ/AvxTfz0DT+qb3Bg4eBSMoV/8S/FCAKHurGC79GW+er4nXXbwTp/SpE9BYjpiH1B5X/swwty235JgBPsxLhPX98A7jDpPaZwaBl61Vk+hGbFv0jyOxUFeuu35DCS9WtifyrWx6iJ2U40KlyAoSX4fGCz9HiD2Vp/eGUSoPkQd15tib98aUWM1u8+wd89E4ArrIST7TbfDOvkvD+Ehk/a9NqkPCiZtckvISFTeOf2jv84DsGb9ck+C/yCC+jiRf8hbQUSNCfR6eouZLQIDwvt9vtN1X8853ln9HpLd76ayJ9KwAHTIL4JiHzRLeU8P7Kztm0zinlP5qD0TZ/1dTuUrn+pvU3tXf0+1tJ/ZHCN8dTriQ0qf/u2rXjzRX/fKd4h4f9sC3cCzD5yCOPJJMx3wRgD3PHMw/6jCml/JnpZpOzaZ1Tyn/0ByO9p256Z7HbtP6r9tbff4dV/rE+6q8kNKH/7t176Xv6vbO0/u1nnZh4zPz8/NTMzEyi/IHxrm8CcAGWHpA5SQt/6cL5SsMjrEHTOpOUf/2DRxM6e5P+2TRoGbdx459rvJ+YWO/ii3d5X/ijqnAa13jalPHgCU94woNgyvEK+jfFy8nJ9kUrKyu2Qme8cwLQgvLfbefmVworCI9f/Gsc+F1gHUZ4rs7UFPAbDKq9hhPFrvCiyWcxSvoptgovZ86cOV3X526bNh5Ap5yooH8TIXPlpNttTZkA3vrb+wDRwGuA0R4BEqZWBjY21qvM3LpbBa5R+aIc+KZXXfT5V9PPCt2m9Q+1t7mTk3WokMIOkUng/jO13rjPS6+trW1UmzxxGz85wB/9+19eXu72bv2NuJ1S9DwdaO8RxP9cqfwzkgl4pPCatsw3Pb0D71vaqyylt00SzmqwbO5gCdnrC39JT3B71D/Gu3+4lX93gisJTesf1ZR/q/f2Xr//TE9Pd5eWltYQkmj0ZALA9wLt04HMxmWHKobCwzZCu2l7mlg4sbR/deXfsFddJjSYj/dgLvlKvmX0iE/5Ux9VWUloGv4M//j9HmM4iVhcXOR3eRLlz7jJXgIraRyysVFd+XPPwS68aXs2w+z5U3g7dkxv11dd+PbIftiLYXfBcoLJ26h4GPQ+2E/DrsAmZgQ6J7F/GewVsF8Eiw+WRMs4Z+A+hNeO7n3729/0+Z07L0k6xIjgmX338bBX/OZv/o9Lut02v/bVBX7OdDrd46urG59Eh48O4SI82Gy2PO69996d99772SsefPDkRagfzxrxshLy9hTs52GP9lw4g2az68cS65bv7bd/6LH33//Q43rtZTt5BTr7QqGpqb3sh3wP/PFYEt7x2tf+xuk9ey7+5BOf+MQHWIG62zsMPaO8tJJ68ARkn4w5lFOISfPP6PruBPQ5H0xAQiqaAKCg1m233RYFco+glzhJFOpxFT4MGGoCf1L9raA3rPLn5AkmmZCNMv/uvPPOPffdd8/Xnz69+hUY3Pj56EsSZrs9BPQnYQ/B/j3eSX07tommz8FK0ZUo/6WwL4R9NuwFsAOGeF5fX5t473s/vtpqfeJjWNR6F5bR/v5Vr3rVoSqdswb8zaGS3wJ7PewzUL8p4uX0ac6xjEmtPHEC8AHYt8HylrFlWK+poX4p2qSH/cYLP/CBD1y/urr6tfgX8rxud+OJ+CfXLljW5BtEfP1pEfaNsF+AndiM+m3WNuVdd92169Of/vT3Atsvx3h6wNFefiDtDbC/DYtT3oOmhvbuB9WfhiXWv4h45h+zU6fOwN7Vvfvuuz+I8eUPn/Oc5/wxyiqtbGqoH6rVN2n9YcJTeDaBQW7d9Rt1em7+5a/kR4qGDcMEoPW5z32u1TsgQHDyDuFgky281ep++oYbXviMUTmgtxXCu/nmd30nlOH/cnT2Qj7a/Juamvr+q6+++q9HVfl/4hOf2Aus/PT6+vp3wO6s3t7OMbTxtc94xjP+ZPfu3etb0N5ZCOKXYV8Em0yyXMKx5dGPTwajJYT9LOxb+3H5viHxx4nKL8FyshKZgvqZZLbL2f8/wb4G9qN2BP1D1i9LbgLniSZvueU9P4DzSz8FfDw+TpDwbyB9TsBpxL1h165dv3jttdeePAeTxZyq9aNs/mHC84yTJ0/+CSY7+wJOb3Oy8zLYf+tTq0Ue3w96nFxMk24BXt6NJC+BvZtpQ4zdXpO+oP9+N9K93qTNugX1s5N/Dx7eYAe4/BXq5yKThJ1jekdQkX1JZRweF/84LmN8NqmPwrPfPBg3+rtpHnrKf2CZwMT7XFfh3EFokvIn+FdWzpyprgwpir5OKuhMPlFE4ZsJ1ve+971fjWXc9+Gf8fcOp/wj6D0OA/prMWD+y8c+9sHLNxkvrwZzPgT7DbB9RkccS/+48JxZ2eE/cf47/VPYaIBNU0g/DSEPbkdw0PwX2GGUPyvENn897AdhfwY2MUPUL6Fhe7BK8ribb77p0Nmz65wMD6P8SXYn5PEDWEH4+KFDh77OlDOq/QNYfvqJEyf+KVD5szmPgSWWvooPNDXIg3fLvw42RPmzyKthD8GyLoWmhvqlygjob6n0RQ9112/U6fn4x7f3iowZCOnaiv8YnoNWAHyFY+Z7GJ3/QFEFsvGjzuyC+v0/aM8fZtuU9+ziH1YAXvnqV796JJbl7Pa++93vfhkG4t8DVNoB/2yczXa1t6dc7wZevhyZPuXM6Am062eSOJQD6jzxX0x8nptTP9+rsDeDHgfvky66gfVzZeUZin+GvdaOrFA/O7vt///x8P1D1M+mlfh37tw5g4nhOyDLK5JADC014aUL2f4YVhdev8mTxX7VC3w2/7jsj22x95RQ/jZ17sc/BfQ+P+S2BLfiiMlohl0SL5yIfA2s19jtNYkc/c1E2e5344GT2ZQpWT/m/R7YN9DjMkPUz0VuYkToHUHl9rkqWIJ/R5F/f5ZGBBIE2so/m8b7XKJwLw07YkSYbVcp5a+7fj7+nTlzauRedXnf+953DZT//9ok5U/lehmY/RbYC1NMz3kIlMdPgsRmKX/W7nmwf0ZP1gTWL5vNPL8Bns1S/izjlbD/dUhlQzqJufjiiy/AO8tv2STlz3JaZ8+uvvZf//VfnwvenvM966x8sef/iorKn237Ipwx+dka5PFroFVF+bMO87DX0+My2fYyTaDyd5Er2pZw5skLrLt+o07Ppz/KTLbNBCCPr864Ogq3CY86s+uuXx7/Ru1Vl3vuuWf61KlTWFLsdsqAy5ZvXnuhMEzSJ8LDAazQBMqDJ59/pZAYEgTWz0fqGxHxHXZkYP3sLLb/W/HAPdnEDFm/hI7xkN7kZOcXoHB4LiIywwzmbO9DDz30qyBEnvdMbf/8bXptTDL+GAHnm1JC3CHlMVCEix62s75rmP6BCcB33X///VOmsAryYP+JJo1D4OV7Tfm262pvhfolJIeoX0LD9tRdv1GnVxf/Kk0A6ircCHDUmV13/bYb/w4fPoxBofu4YQa3+O0G7jQZ41UO/Geau3VUQh6/BFrnmRJ9bk3y+GVTVon6uarET3elJi011S8py6J3Hvar/xsjhhnM2d7Xve53r8JEjrLrGa98TQKva9XPSpOix+3JH7Eic71DymOAtove7bd/+FLPaf+B/NmAfnsnLsQWwjMZX1Ee0b/3Pr2g/patzldkA1ztrVi/iPSQ9ctWb6Lu+o06vTr5V3oCUGfhlOSoM7vu+m03/uHfVgt7uq/cIuVPSFABepfsS8iDe9D8Z55rapQHD7t9Q4n6+erFg3pXmsga6xeRzNKD0vrqj3506fHD7qkfP37yFSigN9lKKWvTlCA3W784k5MeMUKs5Joa5JGi76N3//0PXmGtZKXy5D1k24tVhANDKNcnZ+nFZTv556sWDwJeZCJ97a2KlxrqZ6oWuXXXb9Tp1c2/UhOAugsfdWZXqF/uvmQJ/tlT9xTg7YcK9bOzD/hd9D70ofc/C5OAWga3uMCgweg/Ie0AD1z1yxksvwU0cvFdQh4DvHIFgN631rCH+1JDexPq17vi22Ztt3Xffce/FrzNxa6pk+3a8tjYWPumOC5IvjaZxF+yvTwzck2S2eGx62eic/BiknjdPHroI7u9GT0RrvZ2u2sXVFWu2EK4sMRKm6dWUXA0AchrL+JK48XVXh4/K/nnItkvrLt+o06vJv6l5J47QNop6y581JldsX6nbJ7Z/pL84wnwXFOxfl6aPnqPPLJyTR3/bOKCgzv7Y5E+2ZtmXl/9cgbLF8Zlun9LysNNxAqN6XW+AlduJn2qorL5SpLdnPqxainlHw2+CLyBZZYxtjw+8pGPXInbxvZXGMyTIiu2N+JVQsTy2PUzwRXlEWUPoOft+6Z82/W1d2Vl9QGUVVq5sn5o31mXfCv035MB7bWbE+LfWdPkZJWF1V2/Uafnw0vJyVNWTq1ksMrG2M/8elRNwovIjjqzh6gfv7w2YCoI74IBIlbAEPWzqPS9efSwRPysfsowX4X2uggn773n1Q9xvsEyyZ8lXlP9ErJ9ehOP+tjHPjbDiIrK5kpkvbhPb1BZVxjMQyYTpWSclQc+evOl50D5k81OGWfrx4QV5cGsE4H0+HnfIJMnXxAo9RosCzT1wwrAp/sVCJ5s97PEvuOgd7yGlayELus3PT2FVYVa8HzGtHc7fBTKMGEY/OXhpcp4gDq1ePcP+Bg2AWi3udVWi/Amxlx4AxOAisLzTgDOAf+sU90Gzn63YntdBKNyK7b3YhB8tItojfWLyGfpnT59+klDdPY69nBTzc7WL44cUA5c8uWqS6FxyQPL//y8r+87Cbk0A+vnozGATVf9hpDHRAl6VL6f9VXUhBe0l6sI7zNpQ1y7fvgGw81xngH5hpCK0qB+h+pW/qS3sdHiPRs9U71+uMvgzGbUb5QnE5OTk/ijXo/+hQBa+I5GcnamcAWA9wlzBaBvqgvPBquht0Wd0xSX69ZQv9QEoKCz59XF6iz9ZDXUr08MvkB6j0tlynkYor0uqlcE1s+Z1xVYc/2c/6xxYPKynG0JV7XsMFzWwi5pd7jq/a1ke60P99hV6vt98lhdXcNlRMnWbD9Dga9k/VzU+DZAwixf/arKowK9N7gqacIC2vs3SLti0he52frhbo2PIc+tw0zGMIn4681QhsDH3rg9w+H5ggsuOLUZ9TO8HkV9ZOo2LP+QvwWMTNq3/uZOAOLByC6+uvCyYCXVUWT2kOBKJgABnd1mbNb/pGzAOeIfzyLsyNbF9TxkewdIgt6jh5jp81bClNmE+jm3xXAGYDdk5duWSNXJfqB88QXISyx9hujq/a1Ce52TTlPHPPxhm+hRJl2oW6F+LtL8J7MpB9by2psj399Gfe53VTSgvfz3/wuuvK4wX/2Q9qerTsbwXYj3Y7LErwFGps7xGXV6fB14Rh/hFxNrrx8J1tnezaA3DP9Yn/n5+amZmRl7wtz1TgCwn4QsSVr4qw9GPrBu4cyc7feaGusXdf6Azu6tSy/iyXaCGusXkS1Bb6ddD5+/hvamSJMeBqPdQ0zGUvXejPr5/qmjIamyUw3zPBh5oM9Z9wpU728V22uVna6oqV+OPEq1uWL90pXqP00H1K+fOsA3BL3jIP/tsDiM1zcB7eXyyffDHunn8vvy6oe3Ed6KnL/uzz0YE9ev8/k9e77o+7DcHC3l1K0MMUl8wjArE6a/PfrRj47G2LrrN+r0htG/lDjGlhb+nNgKncHOCUCLiRlrDFf3qgovD6yIq/RPaYh/hqZJiVtz/R5GZ7rXgDUppPzkCbPl+CKPmus3UZJeCgf99vR9AYNbP3GAz6KXTE4rdM6k3hY9q/RNVa5J2VaBXm9GHr28m1o/X12c9c7UL8rrkIczr6uguuWBi4c6IzYevB3tfhEsJwPObaLMYM5//i+H/XOmLzKB8vhp0PlF2MLxlfLAeH/4oosu+rqnPe1pR1i+Q74MDjKu+t1116d2YQKwr+rKhDWe3n/55Zefqrt+o06PjK+qf5mX/KOcjcE2SndhYWGdz8kg24uM9ghMQuPyVqEqwnOBYdSZPWz98M8Vp4H7zM50dsPSIpcE5kaAf2fyKlr3YJ6hd5plV5RHlDdDr9eUTVeuUdl5fDNxDvmC35teP1N81h2ot6N+Pnnk4sQUtBnyuPTSSzs5KxOm6CC3RHuL6L0VCZ4Cxfp7OEP1sGc8oOJ/Ayxfd61T+YNcZH4Ov18G+0+w0WAfhVo/kMddO3bs+MWrrrrqmmc+85mfYFTF/hZR9fHvU5+66ynQH/agaNXC783iBc9HN6N+o74SjVWdjSr6lzqfZ/hs/C0vL3d7t/5GjJ+02c/TgXv37m196EMf6gXHg5GdJtRP4Y3YzDxVdR9YhwVDq9W+ExeCXBMXVn0wR/6vAP9uPceD20nUYw02hRO2Lds5GVan8gL9B4fo7Mc3u3457Y3++cXx/l8X/tjmqjP9GtqbqrerfjnyeNDf0jimhvqliujR62ICkJy7yalfKq/roWR7XSRSYaD3OfTf1+Db/r/Az/uiHx/gR374nj8S8lW/98FWPvDHwgLa+34k45cleSbmObD7YHmm5wvI+/Frr712Gf7EBNBL0mY9efxbXFx8bjZ90bMLL1Apnxx2fD7H46m32QX88+bzRZB/mICmorFaRuXP8Tza5mFkMrDzvUDMDlqYACSZOBhVMb3C29uR2RBE6UbbwgPTP4XlLrCtuvIn/7CScAP49zuG/5vVOQvaS6DcA5s6Ie7qnMO211rmi5qMMu6p2tl37dp17+oq/5TafzqGk0e2fjntvTtqQM6PjReTjPLFbYufrjbTbzkPJJacTCT19tUvRx5JXtMe291EvNy/e/fu6N/tOeofdjMTv82/PXv2nH32s5/9PtTvlhz+JXldHpueiS/ZXk7u/sXkrYGeIRW5AfRemMpQ8ODDC942+SDKGmp8NkWX5J/JFrkB7U2lL3qom16ffxileqqe4womYvyIUqL8WS8zRbBHyqi+sRKLvKV+TOH25GOcmZ0VHg7R3JGjHAp5afgHeT37M5/5THTj2Tnm3yftSpv6bbZyPXPmzG1VOzv+2ZxA/ZJ/hnXIo0R7U/yyeUd/Fi8MM/LFK4TATjlTkzz4TzR6hz2vfjny8La5pvolTLHpwX+YEYZ/OfVL8mc9FdubJZM8i96APPiGyNUJgwo8tnz7SZOV6I/0w8J8TZOHj3/Q51T8KeVPDkYTADApmQBwj6CXOIzDVipX4U3rnJdd9qj34p/Xeg3/5HYcO3bsRSPAvyUjYpd8N0u5oswPmHJDXbuzo669wWLL/vmzmtzX/bivvnb9TJqMfLk0jMlLmKlRHh9GiRsB9fNVLMGInaDG+kVks/Sw2vbhDP/s4gv9Q7TXSVv0BpQ/+fSNsMlKs5NxvcCsfOPgpP9ypeeWvPzZuKbJw82/+ABhljfm2awARM88Hbi0tMQ9gtLGVXgTO+fLXva990D5OwfEPKa6+IctgG89h8uGprr/To+rfpul/MG/h1DkB00FQtxsZ8fhl0ObWD9flW5ChLP/ZOtHAo7+wUHunYwrMjXL4z8C6+erFj9AE72eZRLUXD8n/s47r31oBPpH1OQh+WfYlrhjRO9lSaNyPAF44YQ+eHI8RvzL4Vo/ysW/+O29aIesnzDjS00AeqcDB5YJMnkGHl2Fcxu8wZ0zUpoDjPIEuPhH5YXTn9cAyJd7snmDawb/v6N+D5TYA/fWy0T42mvtWf890joVqaFhu672nn/+jr+z6NnJC/0B9fPRWHBFuOrnUP4m6xuNx+cOUT8nSdTlTUMe2OWY8beGeN31c9ObePjCC/f8I3irPWHDeI9bEn8eKv3gEvT2I9dX9HO6fW75Jv/8TaagiTETl6ifoZ3rjjo9H//49l6RMVsA5r3AWpQ/lRe2Ebik2NTOGTwB8Amvp7wonx8uEqIdvwlgXce5hj8tsQduV2fAX9Bek/73jafI9bX3h37oxz6IlYR3FOXPxgfWL5uNzzxo9VfZCF/9cibHfwMaX8jSMc9D1M+QSLmg9+4bbrjhzhoO7N5IwptQP+cBRwwv//vuu+/mlkspU0EeufRFz7mSZXjGsSvZXjaBtlsCL4t2Pp+/afLI55+PS/1wswJQWvGTRH7h5UmOkfC4FHymz2a3L5B//xm5cz/TaqhvFv/wqtXvoQwuy8MMzMzj4IDfwPa+GaT4+lKhCWjvz4JIMBAD6+er168hIrVEGVA/Fy0qtV9xRQxZvwGSpIdtv1+pQfmT9kexJ/83W7RS9AgmAOR3KVNRHt4yRC9X+e8B477PyzxElMAz+8ShPFqMa5o8SvDPyzozAfAm8EXUUbhNe8yEx1PVb7Hbl/WX4B/fBPjRbP7s82by78lPfvLn8Q3un94C5c93pH8o2zbXc2B7eTta0GpCCXm4qsMJy2/bEYH1s7PY/t/Fw3vtgCHrZ5OK/KSHpf/XP+c5z+FkNTI52xImiddley+77NGvwbD+uX6iTZss/hjKuK9fTrFvSHkMFCB6ucqf/PpJ2AsGGNcLKIlnjqW5f6iaJo+S/POJIXkN0JvAFVFX4Yb2mAoPy+ZuU4F/rwKlS93Utmbmi1fr/hJvkvxGDW839JoxoBw4afom2GO+dprwknj5ceR7m8nrcivIwyZzFA+s91kTWLJ+Jpvt8vwDaS4zcMj6kUTKkB62dd6FL8D9vyZiWOXPMwRXXfX0z+G9/G8HzZObOFn8n6D/x6beIW4N8kgVI3qFyv8yMMz7p6UCnv86JYDMQ9PkUYF/GY71H0uvANRZOKsxxsL7ZzRvYC+3Iv8uBK3fJL+yZiv5h2XXV6N8rASEH9ALbC8/JMPDQoUHfSq0l4r5RbB/AjtgAus3kK8XwNeSngebTFoq1M9Hmx9gugb1e2/dy+pQ/gtPetKTXvqYxzwm+ldVh/I32wj86M355+/8Wpxh+WzNk0W+WsstHU6Gg02N8ojKFL1C5U8+/Q/Y3RHDMj8V+ttDIMGx1GmaJo8K/HPyzQSWmgDUXfiYC4+KJ3UobEj+8Z/VlxvB0T1H/Pt1FM1vjB9iHfJMQHtXkf9G2KfCviePFuOGaC8V3XfDfiPsJ2EjE1A/kzTrcqvip2Cvgb3LRA5RP0Mi5YLefc973lO/ZnLyvNcggmXCDKycxMEBv2jvnbt27Xg5VnO+77GPfSxXXFyvIgZQipP42vuqV/3ku6CsvwSp+G89d+nWLixHHjeD3tVI+8t2+iK/r345BzBzSYpeEF44kf8OFyNz5Jt318xfgFaE1SzNpsmjIv+ybEs9+05o8h/N5XbKCoUfRv4DNg3b3xDhPRtt5je/61rGvROkvhT2kRHh33NQl++EnYd9AmxicvCyhsGce+ZvhuW/8nuTTDmeGtvLSe88Dqy9DPYr4d/bLzZXuWJZO5r0vBEulyT5nJga6xfRzNK76667dh09uvxifEv+68G/5yPR+Unh+R7uyb8d30X46+c+97mHdu7cmbyZU+c/f1bBQ+8xiHo57IthiZfzYAdMFi94Pgr5/Ov6+pnXr61NvHsgQ0FAln9M7qlfAaU4WvSC+MeVyg/DXpllala+cXxufzMkON59yDwYt2HyOAL+7RtyJfAoeLff8K/nYjPQbVITAKbK3ioU8E/EOwFomPDeBeFdM6TwbCn9Jfj3HUO+t23Tm6hJHlSks7D7YB8DRbMHiqqDtq/BPtJud/F9/vXbsVT8UcQ7Z/QId5qa6pfQtul99KMfveLkyZNPXl8/e9nKyhkuW07Dsl+chn0QltsTXDW4A3YddsDY9EzkJiubDsp5Us9yov4o2J2wfOOBvOXWE/vwx2GPnIP6oVinYR2JEU4WeaaFCmMKin5jamrybLs9eRzjzGdwNe0nvuRLvuR+/VMHdwLMCMn3z1FdrlSmDPq/81XOgO90cJXx2hQxPIxQe7NVi57rrh/4dwT6A+Oqra6DJk92/Y7iYX8voIW7f9qzs7PeKxpTEwAqfwqxb4IKd04A6mbOqNMD774GrHvLkMJLWE854ET+jz7/+c//ExO4ycrGFBPkjro8VL+gf3JeWYt/4p8HHD+I8N/Pxg2h/Enq62H/yabZRPz98i//8hH8mbqiz4cg/dtPHvvMBKDVu/W3ywkAl0NzTaz87SSVCo8INFF4L3zhC2/CFcFcFuuZ6vwznQmXxvw6VgCeT4JS/oavxW4T8TeCK0WJoCSPsem/10Oov5MItucx41XFPz9cKcQfp75pKl76HKCvuv5A5tbc3NzkI488kvybz50AxMvWdvHVC2+q8Hg6Gv/YfyvmYnX+ZTrTjpWVlb9YWrrlqVomtfHp9zcZf4YrmiwaThS7wkvw5ORp4OabYFNnOzLjVY/hpca/n0MmbmlFRvIgG0rxL2ac9Ts/Pz81MzOTKH/w1L8CgH05ZE3SDlV404WHV6O4jPWxgD0vS1x9r6czXfDggyfeBN4e6KcM8zVdHuSSlGEYVphKeBFePGi5CuH/CsszKInxjFcTJca/D4DY3xmCwh85MZzyhz5v4U+jrdAjoq4VgBYTG+ZHqTAPKyE8O6sGD3BjenqaJ69/GPs4Kd6EPBR0pktA4ybYuRBaTKPOpME8FCvCS8wpTRadiHk6Qt8Jy7c8ElMwXiXpCjw/ZuI1XsWcqKp/mZsr+ZSLMbz1d2FhITrQnJ0ARHsEJqFxeatQFeUl4fWVDW72ewf4+WeGpyFuYGfi6fv/gL2hiKbk0ZcHeJG8DlfENxMv/ol/Bgsh7hjj5YVo/yHYzVD+fMWWf2omxph/bN6A8bUXumOjiv6lzucZPnslf3l5udu79TcqPzUB4OlAe48gXnag8h+oa2EAlZcOIJ3XzezR8/vYDxYyDwkClb8hdQE8/wz7EyYg6/rAlalfNpv3WfSkDL3gcEQIL2ODF/475+E8vsKZmJLjVZIv43kIz9G/f+Glj5dqyr810W5T+fcNVqK7S0tLawhJNHoyAcB7gR37dCCzcdmhiiEYsI3QNp8HJQ0to0WcvB+/r4l8OT8VOxMP4fwm7Jth99jk1ZmEPxsPRX7hRXhxYOSLEMbDfq+FnbTjK45XNgnjfzU89wh/w+HPyMNa9Y9W8BcXF1fB30T5k+lmAtDfIGAoDL77HntK/prCozOEvbxS/ikmvg5P/5YKsR4M/+xlm5IHQF4EcrfCfhPJqjMN15nEP/GP/SjUjCleXoz287W8aEyxeVHDeGXI8TDhH44p/0wbB9y62+uTB/Q5FX9K+bMy0QQAlUgmANwj6CUeqGxRgKtwKf8BrnFmxW9l35eNcfGvpPI3JB8Hz5tA759vvPF/PlUrMQdPAOOlZ7R1d07R02TCdNAQdwTwcgD1/AdYnsi/LFvnGserz4P2d6G9LW0bD2wbZ9nufXbLI38l36wARER5OrC3R+AtxBfhKlzK38et6Pv3/GRmopRc/Kuo/KNCe/TmH3jgkfcfOnTod2699dZ9kodXHgMRIzD4DtTJDlD9NJmw8VDkL4kXfnWOK5W3w369i3aN4xX/lVL53yflX6/y59k9fDTOJb4kLDUB6J0OHFgmSFJ7PC4wcAdBB8w8DIuDuQ3wS/S6+FeD8idlkp/Cis53P/DAF5b+5V/+5ffQ0Z7DwDKm5OBRSFr0pLwKQWIlEF62DC8HwfY/hT0M+/2wqY/74DkyNY9Xvwj5vlXKv17lT/3Bt/eKjFn6p2sr/mN4vrwoM+NzwHAYpxe5hFTKNKyzt8G/f8R7ml8zxJ5/ir858rBf5eTlNn8Oy1du6PeahsljQu3dMmXjxZwdIXlsujx4qdS3wH4b7FNt3rv8geOLK6sr7M04fP7NJ06c2K1tytxtyiNg3j4XA0vI4yjy78/SMBOAbHjQBKCgcM4iS00AmtjZ3/jGP9l7xx3H/gGTpd4/8+pffCqQR1bG5vmz8PwHLFckPgz7KVjeKCdlCB5o24RICDNN7L/b6Z/rww8/PHn48CcOPPjgw1dhZfhqSPUG2Jkw6eb+2bP/XISSe//evXuvf9aznqW3xQ7mKn/y8wjswASg5Hhf7wQgoPBSE4AmDx533nnnHtz3/tZudwPX0m5U6Ux5KzFl6XEl6DOQ7zI+IoFrfNsn4D+BsFM4stA9e3b9bJVDovy65HnndbCkaH9lUvTA1yAj/pFNwksQWJAIeJnC5PUC/LHgtdwXg3dXdLutx2FPeArPoWSSdAHjfZI2wHPnrl27XnDttdee1D//QuVPdh6BTU0AKsjDOQGYJPWypkLhuUU0WfmTMQcOHDi+uvrIi++554G3oXNekcssR2TN8gC51j5sS0SAg7LvlTjcygS/Lr2+zoFnXfQcMswLonzFP+EvDyN2XB8vpq/FsTwQNgLK/zM7d+78Sin/+vf8q/x5TB0CtEHk8xNc/LZwXXvWTVf+5DOXmV/5yh/+JDrnV+CRM7VgU7c8RI+sH07Z1Nk/JA/JI3gwQMIRx8vRHTt2fOV11133gP75B/3zHxB93fItNQGou3Ap/4E9Zu6/c2+OH90oNHXLQ/TIcin/QuD1EggvwksoVpDukzt3Tlx7/fXX3yvlPxrKn7ILngDU3dml/AeUv+lLd8PzAtibTIDLrVseokcuS/m7sOYKE16EFxcuPGHv3b179wuuu27+uJT/6Ch/yKoVdAaA3xSuc1lTyt+r/E3/4YVBvHHrL2D5Gc6U0eBLdkhZp0CR8yC8CC858BiIqhkvC5dddtl3P/3pT5+U8h8Z5d/C65ft2dnZbtAKQHyrEGYBiak++Er5Fyp/w2W+isdvb78aljc4Rabmzjnqe4aqXyT16v1NeCEDxb8IRgE/NeKFJxB/GuP9t0r5Vz/wR305OTkJPV2P/oVMWrz110ChcALA+4TtW4WG6UxS/sHK38iHx+Z/A5ZbAnw1r9aVGNEjm6UcyIUQI7yQS8JLAFa4jflCjPe/uZ2+k8B2jeJ3P9L8ro4/0GnNzc1N2rf+5k4A4mV/u/jqhUv5DwWu9+CehjmAc7GumaAGc+K6Op7FP/HPHhmL/A3Cy9+DF0/DeP8OKf/h/vln+TfMeEV8zs/PT83MzCRLCZCRfwsAH5JAliQt/NUHSyn/oZT/BPl3zTXXrL7gBS/4tqmpqVdANPcOI48GDUbEvbYRIi5U77/CCxko/kUw8v/cjyh+TvgbMV4dzyqvUfxnvZ3OJAyDP4qMHxJbWVmxFTqDnROA5jH4IAAAQABJREFUFhMz1pj4VqFqX6iT8h9e+dud6eqrr37TlVc+dg7XO/8OvhuQnA0wsipyNZiTQxrMi3Bi4oUX4cVgweNyr/8PYJ8C+1ca7+sd7w3Pq3zkx+TlSj77sTG89XdhYSH6SlR2CyDaIzAJjctbhap8QUpgqB8MnEl/27e94l58oe/HIJ852H8zcipyNZiTQ1L+RTgx8cKL8GKw4HHfhvBnwv4g7AMa7zdnvF9bW9uoon/jt/d43q+v/JeXl7u9W38RnvkOAE8H2nsE8WBJ5R+lLfXDwcP+58rMWgYKZ2FgZ7oVFHmhBz8e9JY86hrMyR0p/zyM2HHCi/Bi4yHjfweeeTD5q2Cjj5YFjldIHmZEr68vqyl/fj48OewfMX16erq7tLTEVeNEoycrAHgvsGOfDmQOLjtUMRw8sI2gW56Kb3lysrcC+N8DQl8H+6Wwb4JNCU6DOTgi5U8mBBnhhWzSZDEDFi4ZvxH2IOx1sO+CjUyF8cpkdbqi11f+4EVqLHcyLBNo+q+16h+t4C8uLq4iaaL8mc18CKi/RtAj1r8EphcQ6LgK1z//QOYh2ZDg/xBI8G7vy2G/HfblkMds/DaHLWINbuBNkDF4tpfRpByCWBclEv/Ihm3d346gAf8b9vWwx2BTZsjxKkWLD6JXj/KPxyuj67sTvRtcTUDC92gFAExPtAP3CHqJk0ShHldnl/IP5V6t4L8Lpf465Pq0Rz3qUc/vdCb/ALL5bFyTbT0Y5TLThb9tPviqvRYHJF8yY0v671EU9Duw3Fqcgf3vsFL+eBtrlLe13f0jfyXfrABAvhMTPB1oHxCIAgN/soXj7ukdUv6BzEOyzZr54sMP3KP7r7S33rq07/77j5slvOsQdilskMnKN860JYOR6ufggORBpgh/Dmg4gwrw8jlkuhn2nbBvhf0EbK7ZrPFqO72at4X6bSpXGIh0yTd+ey867O/NnpoA9JT/wDKBN3cvwlU4Oufe+++/fwVAKb2HIXANtwzk498P/uCPfgxxPDj4hz3RcXZ/Vc8+GS7tk2AfDZuAziPf6IxI1QMq2paQ8gLGgozwRzYNjRdogtbnwMujtDiidSeU7QfQfzkeHA4SRC+Rb3w5uHVnnnKrO2b14zj8mLwG+/oH394rMmbpn66t+Lncw33kQuMrvPfeIg+lcV862IyZ8ArbPcLtJfAu2Llz50W7du16zPr6+m489/Cy1j158uTK2lr6sGFhY5FgcnKijZvBpuEz2EOo6IXwjmnEP3JBeCEXcgzH8rOwZ3bs2LF6+eWPPvP4xz/pYXxTPhrjt/Cfa04V46gRHv+iCo5A/Z6DitziY2SB/rWzHcXDfjuAfrMCYCv/bBrvc0DhL0Lm4AnACDDb21ZGNKx+q2gvv+iFPwpnv2AYo8HDcKLYbRhemtY/1F50AY0HxeOASVFxPPh6kz/rBujfbJaB5+Q1wIGYgoDAwr8PZJKl5DySFZnjJSl66pxecDgihBfhxQELb5DwIrx4weGIqIiXnSD1Cgc5555/lW2iShOAQOXPenMb4VWuBthhFZljk0j5RU+dMwWIggfhRXgpgEgqWngRXlKAKHgYAi8/DtKPzZIvoX+zWQeerX3YVJz3DECFwk+D8nNhP5wqofcwBHNc5CZET53TCQxPoPAivHig4QwWXoQXJzA8gUPg5VkgeRPsDpt0Bf1rsjvPAJRaAahYOJcx/hn2SaYmxh2COYZEyhU9dc4UIAoehBfhpQAiqWjhRXhJAaLgYQi88M2sf4StS/l7axo8Aaio/E3BXMZ4N+zXmIAhmGNIpFzRU+dMAaLgQXgRXgogkooWXoSXFCAKHobACw/9UVemvtEypP711bZl3gLwJYjC41uFOFewdwxKv5fKd8t5Yc2bcHL013C6/JP66MPBEwCKvpMQocz/M0RnchIVPQ3mTmB4AoUX4cUDDWdwRbzwlfnXwH5TlugmKP8W7v5pz87Odm2NbpebOgPQ6XRS9wlXOW1oiJvGtFrtO/AxinfxgxQIe/DMmVOn1nHxoEkX6rJqO3bs4jaD3ZYu6J0WvWIuin8Rj4SXYqhEKYQX4SUQKsJLn1Gu8YX66lGwXO6/DvYpsAPG6MuMeqvyEbajIL4ftsVbf/fu3dsNmgDEyp/1Yn1pSv/zj7Pht8bGRDRFj2yQPCIwBPwIL8JLAEySJMKL8JKAIcAz4njhBOBKfBo+WvWfmZnZ4AQg9wxA/LlWu+VSNjY38vwjDgZNxiLhCc95GLbjhGdyQ3ixMZHnF15GCy+szfz8/BQUv/knP4GtCv8EAEvzyJKkhV/gJxNDjMBPLgkvIVhhGuGFXBBeyIUQI7yQS8JLCFZMGujz1srKiq3QIya6DgG2mNhkjFJhZx5XBE/o4hebK26/OmeEmCp7VBFDxT/xz92z3KHCi/DiRoY7tGl4IReyF6/x1t+FhYXopqDsFkDL7BHY7OOtQlL+Nkfc/qaBS+0lDvRPxN0bBkOFF+FlEBX+EOFlWLxQ+XdApP9/fnl5udu79TdifGoCwNOB9h5BPLhR+fuF5IuR8MgZKQcfPrLhwovwksVE3rPwIrzk4SMb10S8tNtU/n0zPT3dXVpaWkNIotGTCQDeC+w88sgj/akCUvFK3yqmiczOLrNI+YcjR3ghrzRZDEWM8CK8hGKF6ZqKF36/xxiu4C8uLq7iOVH+jDMTACtpnIV7/lVMU5ltL7NoMA9HjvBCXkn5hyJGeBFeQrHCdMJLjBfocyr+lPJnTDQBwOsAyQSAewS9xIwvZcRsskuDeShohBfhJRQrTCe8CC/Ci58D7v6Rv5JvVgAiqjwd2Nsj8JfiiXEXLmXoYddAsPhHlggvA8DwBAgvwosHGs5g4aV5eOHZvXV8DjfPpCYAvdOBA8sEeQQYJ3CRC1Je5EKIEV7IJeElBCtMI7yQC8ILuRBihBdyqYtX9/OVP1OZpX+6tuJP3QXAhD4jZpMz6pw+fGTDhRfhJYuJvGfhRXjJw0c2Tnjx4uUoYvZn+WVWAGzln03jfRazyRopfy9AMhHCi/CSgUTuo/AivOQCJBMpvJTHi5kAZFhZ/Chml2e2zVXxT/yz8VDkF16ElyKM2PHCi/Bi48HnrzQBELgELh+gXOHCi/DiwoUvTHgRXnzYcIULL9XxUnoCIGZXZzZzin/iHzkQaoQXckrbbMKLmwPqH8P1j1ITADF7OGaLf+KfexhzhwovwosbGe5Q4UV4cSPDH+q6DdCZehPA9Ynzzjvv3bh58DDsQyiUby12z5w5cxrvL5Y+lIg7D1o7dkztxPUH5s0GkBQ9pzAdgeIfmSK8OKDhDBJehBcnMDyBwssAXqinLoR9Mux1sFfBek3d+rdXUCtoAsBvCtf4rfu/heL/tRtuuOGOs2fPJsoaYd2DBw+ewFcJS3+DGHnat9xyy/miJ/55e5AVIbxMTKi/WYAo8AovwksBRFLRFfHyLBB5DeyLU8TwsAnKv4W7f9qzs7PdoC2A+FahRFejSpX25L6AjF8H5rxEyl+TnSzIfc8VO5OP3IToaTD3gsMRIbwILw5YeIOGwMsHQPQbYTkBOG4K2Azlz1t/Df3CCQDvE7ZvFaqo/O9BgdeAOYv6py7lb8BX5A7RmZykRU+DuRMYnkDhRXjxQMMZXBNe3gziz4O9bzOU/9zc3KR962/uBCBe9rfbWumf/2lQ+Bow55NS/lL+Npry/DV1pqQI0dNgnoAhwCO8CC8BMEmS1IyXj2OL7hvw5/tM/2O9LKqS/k3qOD8/PzUzM5Ms5aPO/i0AHMxDxiTtMIX/HAq6Vcpfyj9BYoGn5s40IXoazAsgl4oWXoSXFCAKHjYDL9gm//jk5OSv94seTvlDn7dWVlZshU7SzglAi4n7BSMVz+evb8AtfTj/rv379/+ulL+Uv42nPP9mdCbhT/jLw5wdJ/xJ+dt4KPJvJl4OHDjw+yj/vmH/+XMln9sJxvDW34WFheimoOwWQIt7BCahcXmrUAXlP4GJxB895SlPmdLpfJ3ON1jKczezM5lydfrdcKLYlTykDItR0k8hvNSLl0svvfQ0lPefVfzzHZ3d4xk+eyV/eXm527v1NxJcagLA04H2HkE886Dy7ws51McZx0UXXfR2KX8p/xDMaPCod/AgzzXZCUFenEb4E17C0TIxsVV42dhYfVOVP9/Uv/Hbe/1WTU9Pd5eWltYQkmj0ZAKA9wI79ulAZuPMo4qJTy92Vq+66qrbTX4NRoYTxe5WgUvfXSiWBVNIHlIOYUiJUwkvwktdeDl7duKDoBUt14fSjPUvl/37OTiJWFxcXEVIovwZayYAVtI408bGMMo/Ivv53bt3RxWX8o95GvKrwUODRwhOTBrhRXgxWAhxhZdthxcq7ftDZMs0Rvnby/7U+dDnVPwp5c/0kaYGKJIJAPcIeokZX8rYhbdaXbzCsO2YXaq96kySbxnACC/Ci/Di54D6h7d/cBJQaGz9ayfOW8k3KwBRep4O7O0R2PmD/K7C9c8/iHVRIoHfC/4gJop/4l8QUHqJhBfhZZzw4tK/8dt7+bsHqQlA73TgwDJBEaNchXMHQXvMRZyL4zUYaTAKQ4rwYvikPxeGE8WuxpfxHl9c+jde9s9X/kSOWfqnayv+Y3i+nAmKjK9wLDscxsGDA0X5s/EC63iDVfKVfLN9Pu9ZeBFe8vCRjRtTvBxBO/dl28rnHP2bfXX/KJLvZx7bmBUAW/nb8bn+EoXn0jGRYyo807wBV+3V4DYAipwA4UV4yYHHQJTwMt54qUP/mgnAAHiKAuoo3C5DYB1vsEq+kq/d34v8wovwUoQRO75peKlL/1aaANRVuBFg04Sn9mpwM9gPcYUX4SUEJyaN8DLeeKlT/5aeANRZOAErsI43WCVfydcophBXeBFeQnBi0jQNL3Xr31ITgLoLb5rw1F4NbmbgCnGFF+ElBCcmjfAy3nipW/8SN8ETgLoLF1jHG6ySr+RrFFOIK7wILyE4MWmahpe69W+Pj62Bm/8Mg22X3xTmlYL9twYZW/1+4qYJT+3V4Gb3pyK/8CK8FGHEjhdexhsvm6D8W7j7pz07O9sNWgGIbxXipwKMkfI3nChy1TnHu3NKvpJv0RhgxwsvwouNhyI/8TI5OQk9XY/+RXkt3vpryi2cAPA+YftWIf3zN6wrdtXZ1dmLUdJPIbwIL300FPuEl2bgJY2E6n++Qac1Nzc3ad/6mzsBiJf97eKrFy6wNgOsZ8+eTaaq+lyr3Xfy/eof6h/5CEnHCi/Nw8swf76Jnvn5+amZmZlkfAaG/FsA7TbnBkla+KX8ycQQo87ZvM6pyU5Iz4jTqH+of4SjRa+Kx7yqrn+ZH/q8tbKyYit0BnddhwBbTMxYY3irEK4Izn5b2ETnuurs6uy5AMlECi/CSwYSuY/Ci/CSC5BM5HbEC5vAK31xt06mNWGP2QP8vPV3YWEhuikouwUQ7RFkyW5srFcqfDsyW//kstL3P0u+Gnz96BiMEV6El0FU+EOElxgva2trG1WUf/z2Hs/79f/PLy8vd3u3/kaMT00AeDrQ3iOIl/2p/P1C8sXw1YVbbrnlfO0JHzwBIONy5HJG4NdgWQYxwovwIrz4ObCd+0c15d/Csn9y2D9izPT0dHdpaWkND4lGTyYAeC+wY58OZA4uO1QxVP7YRmhL+Uv5h+BnO3dO1L10J1F7paxD+oVJI7wILwYLIa75boD99h4nEYuLi6vInyh/0jJnAPprBL0SuOdfxbgK17J6OCfV2dXZw9GiA1LklcaXcMRofBlvvBj9Gy/7G13f5Rk+PpiABDDRCgBAkUwAuEfQS5wkCvWkC49zqXOGck+DOTklvAgvPg5Ieal/+LDhCm8aXlz6l3zJW8lPtgCYkKcDe3sEfCxlXIVrMA9nYdPAqvZqMA/vHZock1caT8MR07TxxaV/eXZvfT067O9lXGoC0DsdOLBM4M3di3AVzh2Egwe1B17EO8Y3DaxqrwbzkH5h0ggvwovBQojbNLy49C9X+/n2XpExS/90bcV/DM+XF2VmvK9wLDscxsGDAyE07DRNE57aq8HNxn+RX3gRXoowYscLL2OBlyOQ6T5brsafo3+zr+4fRZ79Jp9xzQqArfxNXKFbovBCWkwgsI4FWL2ylnwlXy84HBHCi/DigIU3qGl4qUP/mgmAl6m+iDoKt2k3TXhqrwY3G/9FfuFFeCnCiB0vvIw3XurSv5UmAHUVbgArsI43WCVfydf09RBXeBFeQnBi0jQNL3Xq39ITgDoLpwCbJjy1V4ObGbhCXOFFeAnBiUkjvIw3XurWv6UmAHUXLrCON1glX8nXKKYQV3gRXkJwYtI0DS9161/yMXgCUHfhTROe2qvBzQxcIa7wIryE4MSkEV7GGy91698eblrmU8AGR043vlWIcwXz1iCTVb+fWGAdb7BKvpKvcyDxBAovwosHGs7gpuFlE5R/C3f/tGdnZ7tBKwDxrUJS/gBe6QsSmgZWtVeDuXPU9gQKL8KLBxrO4CbiZXJyEnq6Hv0LprZ4669hbuEEoNPp4GM/Jjld/fO3uZHnbyJYdQX0eV19ATOvV/Tj1D+k/PtoKPY1FS9pzlTXv6DTmpubm7Rv/c2dAHQ62ejqhTdVeLoSWZ+DTndg95P6h5ShGxnuUOGleXgZ5s83UTQ/Pz81MzOT/J0HhvxbAO02lX+SFn4pfzIxxKhzNq9z6qKWkJ4Rp1H/UP8IR4teFY95VV3/Mj/0eWtlZcVW6Azuug4BtpiYscbwViFcEZz9trCJznXV2dXZcwGSiRRehJcMJHIfhRfhJRcgmcjtiBc2gVf64m6dTGvCHuOV/L5K562/CwsL0U1B2TX+aI8gS5a3ClUpfDsyW//kstL3P0u+Gnz96BiMEV6El0FU+EOElxgva2trG1X0b/z2Hs/79ZX/8vJyt3frb8T41ASApwPtPYJ42Z/K3y8kXwxfXdCBMB0I8+EjG67OLuWQxUTes/AivOThIxu3nfFSTfm3sOyfHPaP2DE9Pd1dWlpaw0Oi0ZMJAN4L7NinA5mDyw5VDJU/thHaOgCnA3Ah+NnOnRN1L91J1F4pr5B+YdIIL8KLwUKIa74bYL+9x0nE4uLiKvInyp+0zBmA/hpBrwTu+VcxrsK1rB7OSXV2dfZwtOiAFHml8SUcMRpfxhsvRv/Gy/5G13d5ho8PJiABTLQCAFAkEwDuEfQSJ4lCPenC41zqnKHc02BOTgkvwouPA1Je6h8+bLjCm4YXl/4lX/JW8pMtACbk6cDeHgEfSxlX4RrMw1nYNLCqvRrMw3uHJsfklcbTcMQ0bXxx6V+e3Vtfjw77exmXmgD0TgcOLBN4c/ciXIVzB0FfRCviXBzfNLCqvRrMw3qG+ofhk5S/4USx27TxxaV/udrPt/eKjFn6p2sr/mN4vrwoM+N9hWPZ4TAOHhwIoWGnaZrw1F4pQxv/RX7hRXgpwogdL7yMBV6OQKb7bLkaf47+zb66fxR59pt8xjUrALbyN3GFbonCC2kxgcA6FmD1ylrylXy94HBECC/CiwMW3qCm4aUO/WsmAF6m+iLqKNym3TThqb0a3Gz8F/mFF+GlCCN2vPAy3nipS/9WmgDUVbgBrMA63mCVfCVf09dDXOFFeAnBiUnTNLzUqX9LTwDqLJwCbJrw1F4NbmbgCnGFF+ElBCcmjfAy3nipW/+WmgDUXbjAOt5glXwlX6OYQlzhRXgJwYlJ0zS81K1/ycfgCUDdhTdNeGqvBjczcIW4wovwEoITk0Z4GW+81K1/e7hpmU8BGxw53fhWIc4VzFuDTFb9fmKBdbzBKvlKvs6BxBMovAgvHmg4g5uGl01Q/i3c/dOenZ3tBq0AxLcKSfkDeKUvSGgaWNVeDebOUdsTKLwILx5oOIObiJfJyUno6Xr0L5ja4q2/hrmFE4BOp4OP/ZjkdPXP3+ZGnr+JYNUV0LoCOq9P2HHqH1L+Nh6K/E3FS5ov1fUv6LTm5uYm7Vt/cycAnU42unrhTRWerkTWlcjpDux+Uv+QMnQjwx0qvDQPL8P8+SaK5ufnp2ZmZpK/88CQfwug3abyT9LCL+VPJoYYdc7mdU59qz2kZ8Rp1D/UP8LRolfFY15V17/MD33eWllZsRU6g7uuQ4AtJmasMbxVCFcEZ78tbKJzXXV2dfZcgGQihRfhJQOJ3EfhRXjJBUgmcjvihU3glb64WyfTmrDHeCW/r9J56+/CwkJ0U1B2jT/aI8iS5a1CVQrfjszWP7ms9P3Pkq8GXz86BmOEF+FlEBX+EOElxsva2tpGFf0bv73H83595b+8vNzt3fobMT41AeDpQHuPIF72p/L3C8kXw1cXdCBMB8J8+MiGq7NLOWQxkfcsvAgvefjIxm1nvFRT/i0s+yeH/SN2TE9Pd5eWltbwkGj0ZAKA9wI79ulA5uCyQxVD5Y9thLYOwOkAXAh+tnPnRN1LdxK1V8orpF+YNMKL8GKwEOKa7wbYb+9xErG4uLiK/InyJy1zBqC/RtArgXv+VYyrcC2rh3NSnV2dPRwtOiBFXml8CUeMxpfxxovRv/Gyv9H1XZ7h44MJSAATrQAAFMkEgHsEvcRJolBPuvA4lzpnKPc0mJNTwovw4uOAlJf6hw8brvCm4cWlf8mXvJX8ZAuACXk6sLdHwMdSxlW4BvNwFjYNrGqvBvPw3qHJMXml8TQcMU0bX1z6l2f31tejw/5exqUmAL3TgQPLBN7cvQhX4dxBOHhQe+BFvGN808Cq9mowD+kXJo3wIrwYLIS4TcOLS/9ytZ9v7xUZs/RP11b8x/B8eVFmxvsKx7LDYRw8OBBCw07TNOGpvRrcbPwX+YUX4aUII3a88DIWeDkCme6z5Wr8Ofo3++r+UeTZb/IZ16wA2MrfxBW6JQovpMUEAutYgNUra8lX8vWCwxEhvAgvDlh4g5qGlzr0r5kAeJnqi6ijcJt204Sn9mpws/Ff5BdehJcijNjxwst446Uu/VtpAlBX4QawAut4g1XylXxNXw9xhRfhJQQnJk3T8FKn/i09AaizcAqwacJTezW4mYErxBVehJcQnJg0wst446Vu/VtqAlB34QLreINV8pV8jWIKcYUX4SUEJyZN0/BSt/4lH4MnAHUX3jThqb0a3MzAFeIKL8JLCE5MGuFlvPFSt/7t4aZlPgVscOR041uFOFcwbw0yWfX7iQXW8Qar5Cv5OgcST6DwIrx4oOEMbhpeNkH5t3D3T3t2drYbtAIQ3yok5Q/glb4goWlgVXs1mDtHbU+g8CK8eKDhDG4iXiYnJ6Gn69G/YGqLt/4a5hZOADqdDj72Y5LT1T9/mxt5/iaCVVdA6wrovD5hx6l/SPnbeCjyNxUvab5U17+g05qbm5u0b/3NnQB0Otno6oU3VXi6Elmfg053YPeT+oeUoRsZ7lDhpXl4GebPN1E0Pz8/NTMzk/ydB4b8WwDtNpV/khZ+KX8yMcSoczavc+qilpCeEadR/1D/CEeLXhWPeVVd/zI/9HlrZWXFVugM7roOAbaYmLHG8FYhXBGc/bawic511dnV2XMBkokUXoSXDCRyH4UX4SUXIJnI7YgXNoFX+uJunUxrwh7jlfy+SuetvwsLC9FNQdk1/miPIEuWtwpVKXw7Mlv/5LLS9z9Lvhp8/egYjBFehJdBVPhDhJcYL2traxtV9G/89h7P+/WV//Lycrd362/E+NQEgKcD7T2CeNmfyt8vJF8MX13QgTAdCPPhIxuuzi7lkMVE3rPwIrzk4SMbt53xUk35t7Dsnxz2j9gxPT3dXVpaWsNDotGTCQDeC+zYpwOZg8sOVQyVP7YR2joApwNwIfjZzp0TdS/dSdReKa+QfmHSCC/Ci8FCiGu+G2C/vcdJxOLi4iryJ8qftMwZgP4aQa8E7vlXMa7Ctawezkl1dnX2cLTogBR5pfElHDEaX8YbL0b/xsv+Rtd3eYaPDyYgAUy0AgBQJBMA7hH0EieJQj3pwuNc6pyh3NNgTk4JL8KLjwNSXuofPmy4wpuGF5f+JV/yVvKTLQAm5OnA3h4BH0sZV+EazMNZ2DSwqr0azMN7hybH5JXG03DENG18celfnt1bX48O+3sZl5oA9E4HDiwTeHP3IlyFcwfh4EHtgRfxjvFNA6vaq8E8pF+YNMKL8GKwEOI2DS8u/cvVfr69V2TM0j9dW/Efw/PlRZkZ7yscyw6HcfDgQAgNO03ThKf2anCz8V/kF16ElyKM2PHCy1jg5Qhkus+Wq/Hn6N/sq/tHkWe/yWdcswJgK38TV+iWKLyQFhMIrGMBVq+sJV/J1wsOR4TwIrw4YOENahpe6tC/ZgLgZaovoo7CbdpNE57aq8HNxn+RX3gRXoowYscLL+ONl7r0b6UJQF2FG8AKrOMNVslX8jV9PcQVXoSXEJyYNE3DS536t/QEoM7CKcCmCU/t1eBmBq4QV3gRXkJwYtIIL+ONl7r1b6kJQN2FC6zjDVbJV/I1iinEFV6ElxCcmDRNw0vd+pd8DJ4A1F1404Sn9mpwMwNXiCu8CC8hODFphJfxxkvd+reHm5b5FLDBkdONbxXiXMG8Nchk1e8nFljHG6ySr+TrHEg8gcKL8OKBhjO4aXjZBOXfwt0/7dnZ2W7QCkB8q5CUP4BX+oKEpoFV7dVg7hy1PYHCi/DigYYzuIl4mZychJ6uR/+CqS3e+muYWzgB6HQ6+NiPSU5X//xtbuT5mwhWXQGtK6Dz+oQdp/4h5W/jocjfVLyk+VJd/4JOa25ubtK+9Td3AtDpZKOrF95U4elKZH0OOt2B3U/qH1KGbmS4Q4WX5uFlmD/fRNH8/PzUzMxM8nceGPJvAbTbVP5JWvil/MnEEKPO2bzOqYtaQnpGnEb9Q/0jHC16VTzmVXX9y/zQ562VlRVboTO46zoE2GJixhrDW4VwRXD228ImOtdVZ1dnzwVIJlJ4EV4ykMh9FF6El1yAZCK3I17YBF7pi7t1Mq0Je4xX8vsqnbf+LiwsRDcFZdf4oz2CLFneKlSl8O3IbP2Ty0rf/yz5avD1o2MwRngRXgZR4Q8RXmK8rK2tbVTRv/Hbezzv11f+y8vL3d6tvxHjUxMAng609wjiZX8qf7+QfDF8dUEHwnQgzIePbLg6u5RDFhN5z8KL8JKHj2zcdsZLNeXfwrJ/ctg/Ysf09HR3aWlpDQ+JRk8mAHgvsGOfDmQOLjtUMVT+2EZo6wCcDsCF4Gc7d07UvXQnUXulvEL6hUkjvAgvBgshrvlugP32HicRi4uLq8ifKH/SMmcA+msEvRK451/FuArXsno4J9XZ1dnD0aIDUuSVxpdwxGh8GW+8GP0bL/sbXd/lGT4+mIAEMNEKAECRTAC4R9BLnCQK9aQLj3Opc4ZyT4M5OSW8CC8+Dkh5qX/4sOEKbxpeXPqXfMlbyU+2AJiQpwN7ewR8LGVchWswD2dh08Cq9mowD+8dmhyTVxpPwxHTtPHFpX95dm99PTrs72VcagLQOx04sEzgzd2LcBXOHYSDB7UHXsQ7xjcNrGqvBvOQfmHSCC/Ci8FCiNs0vLj0L1f7+fZekTFL/3RtxX8Mz5cXZWa8r3AsOxzGwYMDITTsNE0Tntqrwc3Gf5FfeBFeijBixwsvY4GXI5DpPluuxp+jf7Ov7h9Fnv0mn3HNCoCt/E1coVui8EJaTCCwjgVYvbKWfCVfLzgcEcKL8OKAhTeoaXipQ/+aCYCXqb6IOgq3aTdNeGqvBjcb/0V+4UV4KcKIHS+8jDde6tK/lSYAdRVuACuwjjdYJV/J1/T1EFd4EV5CcGLSNA0vderf0hOAOgunAJsmPLVXg5sZuEJc4UV4CcGJSSO8jDde6ta/pSYAdRcusI43WCVfydcophBXeBFeQnBi0jQNL3XrX/IxeAJQd+FNE57aq8HNDFwhrvAivITgxKQRXsYbL3Xr3x5uWuZTwAZHTje+VYhzBfPWIJNVv59YYB1vsEq+kq9zIPEECi/CiwcazuCm4WUTlH8Ld/+0Z2dnu0ErAPGtQlL+AF7pCxKaBla1V4O5c9T2BAovwosHGs7gJuJlcnISeroe/Qumtnjrr2Fu4QSg0+ngYz8mOV3987e5kedvIlh1BbSugM7rE3ac+oeUv42HIn9T8ZLmS3X9Czqtubm5SfvW39wJQKeTja5eeFOFpyuR9TnodAd2P6l/SBm6keEOFV6ah5dh/nwTRfPz81MzMzPJ33lgyL8F0G5T+Sdp4ZfyJxNDjDpn8zqnLmoJ6RlxGvUP9Y9wtOhV8ZhX1fUv80Oft1ZWVmyFzuCu6xBgi4kZawxvFcIVwdlvC5voXFedXZ09FyCZSOFFeMlAIvdReBFecgGSidyOeGETeKUv7tbJtCbsMV7J76t03vq7sLAQ3RSUXeOP9giyZHmrUJXCtyOz9U8uK33/s+SrwdePjsEY4UV4GUSFP0R4ifGytra2UUX/xm/v8bxfX/kvLy93e7f+RoxPTQB4OtDeI4iX/an8/ULyxfDVBR0I04EwHz6y4ersUg5ZTOQ9Cy/CSx4+snHbGS/VlH8Ly/7JYf+IHdPT092lpaU1PCQaPZkA4L3Ajn06kDm47FDFUPljG6GtA3A6ABeCn+3cOVH30p1E7ZXyCukXJo3wIrwYLIS45rsB9tt7nEQsLi6uIn+i/EnLnAHorxH0SuCefxXjKlzL6uGcVGdXZw9Hiw5IkVcaX8IRo/FlvPFi9G+87G90fZdn+PhgAhLARCsAAEUyAeAeQS9xkijUky48zqXOGco9DebklPAivPg4IOWl/uHDhiu8aXhx6V/yJW8lP9kCYEKeDuztEfCxlHEVrsE8nIVNA6vaq8E8vHdockxeaTwNR0zTxheX/uXZvfX16LC/l3GpCUDvdODAMoE3dy/CVTh3EA4e1B54Ee8Y3zSwqr0azEP6hUkjvAgvBgshbtPw4tK/XO3n23tFxiz907UV/zE8X16UmfG+wrHscBgHDw6E0LDTNE14aq8GNxv/RX7hRXgpwogdL7yMBV6OQKb7bLkaf47+zb66fxR59pt8xjUrALbyN3GFbonCC2kxgcA6FmD1ylrylXy94HBECC/CiwMW3qCm4aUO/WsmAF6m+iLqKNym3TThqb0a3Gz8F/mFF+GlCCN2vPAy3nipS/9WmgDUVbgBrMA63mCVfCVf09dDXOFFeAnBiUnTNLzUqX9LTwDqLJwCbJrw1F4NbmbgCnGFF+ElBCcmjfAy3nipW/+WmgDUXbjAOt5glXwlX6OYQlzhRXgJwYlJ0zS81K1/ycfgCUDdhTdNeGqvBjczcIW4wovwEoITk0Z4GW+81K1/e7hpmU8BGxw53fhWIc4VzFuDTFb9fmKBdbzBKvlKvs6BxBMovAgvHmg4g5uGl01Q/i3c/dOenZ3tBq0AxLcKSfkDeKUvSGgaWNVeDebOUdsTKLwILx5oOIObiJfJyUno6Xr0L5ja4q2/hrmFE4BOp4OP/ZjkdPXP3+ZGnr+JYNUV0LoCOq9P2HHqH1L+Nh6K/E3FS5ov1fUv6LTm5uYm7Vt/cycAnU42unrhTRWerkTW56DTHdj9pP4hZehGhjtUeGkeXob5800Uzc/PT83MzCR/54Eh/xZAu03ln6SFX8qfTAwx6pzN65y6qCWkZ8Rp1D/UP8LRolfFY15V17/MD33eWllZsRU6g7uuQ4AtJmasMbxVCFcEZ78tbKJzXXV2dfZcgGQihRfhJQOJ3EfhRXjJBUgmcjvihU3glb64WyfTmrDHeCW/r9J56+/CwkJ0U1B2jT/aI8iS5a1CVQrfjszWP7ms9P3Pkq8GXz86BmOEF+FlEBX+EOElxsva2tpGFf0bv73H83595b+8vNzt3fobMT41AeDpQHuPIF72p/L3C8kXw1cXdCBMB8J8+MiGq7NLOWQxkfcsvAgvefjIxm1nvFRT/i0s+yeH/SN2TE9Pd5eWltbwkGj0ZAKA9wI79ulA5uCyQxVD5Y9thLYOwOkAXAh+tnPnRN1LdxK1V8orpF+YNMKL8GKwEOKa7wbYb+9xErG4uLiK/InyJy1zBqC/RtArgXv+VYyrcC2rh3NSnV2dPRwtOiBFXml8CUeMxpfxxovRv/Gyv9H1XZ7h44MJSAATrQAAFMkEgHsEvcRJolBPuvA4lzpnKPc0mJNTwovw4uOAlJf6hw8brvCm4cWlf8mXvJX8ZAuACXk6sLdHwMdSxlW4BvNwFjYNrGqvBvPw3qHJMXml8TQcMU0bX1z6l2f31tejw/5exqUmAL3TgQPLBN7cvQhX4dxBOHhQe+BFvGN808Cq9mowD+kXJo3wIrwYLIS4TcOLS/9ytZ9v7xUZs/RP11b8x/B8eVFmxvsKx7LDYRw8OBBCw07TNOGpvRrcbPwX+YUX4aUII3a88DIWeDkCme6z5Wr8Ofo3++r+UeTZb/IZ16wA2MrfxBW6JQovpMUEAutYgNUra8lX8vWCwxEhvAgvDlh4g5qGlzr0r5kAeJnqi6ijcJt204Sn9mpws/Ff5BdehJcijNjxwst446Uu/VtpAlBX4QawAut4g1XylXxNXw9xhRfhJQQnJk3T8FKn/i09AaizcAqwacJTezW4mYErxBVehJcQnJg0wst446Vu/VtqAlB34QLreINV8pV8jWIKcYUX4SUEJyZN0/BSt/4lH4MnAHUX3jThqb0a3MzAFeIKL8JLCE5MGuFlvPFSt/7t4aZlPgVscOR041uFOFcwbw0yWfX7iQXW8Qar5Cv5OgcST6DwIrx4oOEMbhpeNkH5t3D3T3t2drYbtAIQ3yok5Q/glb4goWlgVXs1mDtHbU+g8CK8eKDhDG4iXiYnJ6Gn69G/YGqLt/4a5hZOADqdDj72Y5LT1T9/mxt5/iaCVVdA6wrovD5hx6l/SPnbeCjyNxUvab5U17+g05qbm5u0b/3NnQB0Otno6oU3VXi6Elmfg053YPeT+oeUoRsZ7lDhpXl4GebPN1E0Pz8/NTMzk/ydB4b8WwDtNpV/khZ+KX8yMcSoczavc+qilpCeEadR/1D/CEeLXhWPeVVd/zI/9HlrZWXFVugM7roOAbaYmLHG8FYhXBGc/bawic511dnV2XMBkokUXoSXDCRyH4UX4SUXIJnI7YgXNoFX+uJunUxrwh7jlfy+SuetvwsLC9FNQdk1/miPIEuWtwpVKXw7Mlv/5LLS9z9Lvhp8/egYjBFehJdBVPhDhJcYL2traxtV9G/89h7P+/WV//Lycrd362/E+NQEgKcD7T2CeNmfyt8vJF8MX13QgTAdCPPhIxuuzi7lkMVE3rPwIrzk4SMbt53xUk35t7Dsnxz2j9gxPT3dXVpaWsNDotGTCQDeC+zYpwOZg8sOVQyVP7YR2joApwNwIfjZzp0TdS/dSdReKa+QfmHSCC/Ci8FCiGu+G2C/vcdJxOLi4iryJ8qftMwZgP4aQa8E7vlXMa7Ctawezkl1dnX2cLTogBR5pfElHDEaX8YbL0b/xsv+Rtd3eYaPDyYgAUy0AgBQJBMA7hH0EieJQj3pwuNc6pyh3NNgTk4JL8KLjwNSXuofPmy4wpuGF5f+JV/yVvKTLQAm5OnA3h4BH0sZV+EazMNZ2DSwqr0azMN7hybH5JXG03DENG18celfnt1bX48O+3sZl5oA9E4HDiwTeHP3IlyFcwfh4EHtgRfxjvFNA6vaq8E8pF+YNMKL8GKwEOI2DS8u/cvVfr69V2TM0j9dW/Efw/PlRZkZ7yscyw6HcfDgQAgNO03ThKf2anCz8V/kF16ElyKM2PHCy1jg5Qhkus+Wq/Hn6N/sq/tHkWe/yWdcswJgK38TV+iWKLyQFhMIrGMBVq+sJV/J1wsOR4TwIrw4YOENahpe6tC/ZgLgZaovoo7CbdpNE57aq8HNxn+RX3gRXoowYscLL+ONl7r0b6UJQF2FG8AKrOMNVslX8jV9PcQVXoSXEJyYNE3DS536t/QEoM7CKcCmCU/t1eBmBq4QV3gRXkJwYtIIL+ONl7r1b6kJQN2FC6zjDVbJV/I1iinEFV6ElxCcmDRNw0vd+pd8DJ4A1F1404Sn9mpwMwNXiCu8CC8hODFphJfxxkvd+reHm5b5FLDBkdONbxXiXMG8Nchk1e8nFljHG6ySr+TrHEg8gcKL8OKBhjO4aXjZBOXfwt0/7dnZ2W7QCkB8q5CUP4BX+oKEpoFV7dVg7hy1PYHCi/DigYYzuIl4mZychJ6uR/+CqS3e+muYWzgB6HQ6+NiPSU5X//xtbuT5mwhWXQGtK6Dz+oQdp/4h5W/jocjfVLyk+VJd/4JOa25ubtK+9Td3AtDpZKOrF95U4elKZH0OOt2B3U/qH1KGbmS4Q4WX5uFlmD/fRNH8/PzUzMxM8nceGPJvAbTbVP5JWvil/MnEEKPO2bzOqYtaQnpGnEb9Q/0jHC16VTzmVXX9y/zQ562VlRVboTO46zoE2GJixhrDW4VwRXD228ImOtdVZ1dnzwVIJlJ4EV4ykMh9FF6El1yAZCK3I17YBF7pi7t1Mq0Je4xX8vsqnbf+LiwsRDcFZdf4oz2CLFneKlSl8O3IbP2Ty0rf/yz5avD1o2MwRngRXgZR4Q8RXmK8rK2tbVTRv/Hbezzv11f+y8vL3d6tvxHjUxMAng609wjiZX8qf7+QfDF8dUEHwnQgzIePbLg6u5RDFhN5z8KL8JKHj2zcdsZLNeXfwrJ/ctg/Ysf09HR3aWlpDQ+JRk8mAHgvsGOfDmQOLjtUMVT+2EZo6wCcDsCF4Gc7d07UvXQnUXulvEL6hUkjvAgvBgshrvlugP32HicRi4uLq8ifKH/SMmcA+msEvRK451/FuArXsno4J9XZ1dnD0aIDUuSVxpdwxGh8GW+8GP0bL/sbXd/lGT4+mIAEMNEKAECRTAC4R9BLnCQK9aQLj3Opc4ZyT4M5OSW8CC8+Dkh5qX/4sOEKbxpeXPqXfMlbyU+2AJiQpwN7ewR8LGVchWswD2dh08Cq9mowD+8dmhyTVxpPwxHTtPHFpX95dm99PTrs72VcagLQOx04sEzgzd2LcBXOHYSDB7UHXsQ7xjcNrGqvBvOQfmHSCC/Ci8FCiNs0vLj0L1f7+fZekTFL/3RtxX8Mz5cXZWa8r3AsOxzGwYMDITTsNE0Tntqrwc3Gf5FfeBFeijBixwsvY4GXI5DpPluuxp+jf7Ov7h9Fnv0mn3HNCoCt/E1coVui8EJaTCCwjgVYvbKWfCVfLzgcEcKL8OKAhTeoaXipQ/+aCYCXqb6IOgq3aTdNeGqvBjcb/0V+4UV4KcKIHS+8jDde6tK/lSYAdRVuACuwjjdYJV/J1/T1EFd4EV5CcGLSNA0vderf0hOAOgunAJsmPLVXg5sZuEJc4UV4CcGJSSO8jDde6ta/pSYAdRcusI43WCVfydcophBXeBFeQnBi0jQNL3XrX/IxeAJQd+FNE57aq8HNDFwhrvAivITgxKQRXsYbL3Xr3x5uWuZTwAZHTje+VYhzBfPWIJNVv59YYB1vsEq+kq9zIPEECi/CiwcazuCm4WUTlH8Ld/+0Z2dnu0ErAPGtQlL+AF7pCxKaBla1V4O5c9T2BAovwosHGs7gJuJlcnISeroe/Qumtnjrr2Fu4QSg0+ngYz8mOV3987e5kedvIlh1BbSugM7rE3ac+oeUv42HIn9T8ZLmS3X9Czqtubm5SfvW39wJQKeTja5eeFOFpyuR9TnodAd2P6l/SBm6keEOFV6ah5dh/nwTRfPz81MzMzPJ33lgqJs8ZGB2rN1uX869BxqzAsBbhXivcKA5jHTRp4AF1uaBVReXBPYSJCvZP56BLNfDzsE+EZaf7L4Idgds1GHr3jN00OMgsIqLRo5jPLgb/k/CLsH+O+xHYHNNyfbm0mKk6Gl8KQSJlWC74eWd73znR7vdjStK6l+rxTjt325/5gUveMGT9+7du8EbfzER2FhYWFh3HQJsIXFqYkCdjyuCyyj/pPDtxmxWXMorEV+hR/LdErzshiD+M+wPwD4hTygOZY3k1VfucuhNQvnvAnFOQJ4N++2wNJ+C/QPY18GuwKaM8LIleEnxPO9B8hh9eVB+wyj/eCW/r9J56y+VP+lm1/ijPQJG2Ia3CpX4559kFbhGH1ya7CRwLfScIzx/LSp2B+xvwI6K8s8bD7gq8dpenV8INzHniH9J+UUe1U/jVRFG7Pitwsva2tpGFf0bv73H83595c9//71bf6OmpCYAPB1o7xHE/xyo/O1mh/n5z0EHwnQgLAwtWsYlnxyTsZ9A8D/C8l92rsn5p56nrL00a6B3BYgvwv4oC9mqwVJXkJPbxUbycPa3Ysb1Umwl/6op/xaW/ZPD/lGtp6enu0tLS2t4SDR6MgHAe4Ed+3Qgc3DZoYrh4IFthLYOwOkAXAh+trIzoazSoD5H9XslePebsP3pu4eZNSjrFOUa6XF8+R28SPQ9+jOgPwMpkOU8nKP+llOjdNSo18/0X3N2j7XnJGJxcXGVXrs1ZgIwMMhwz7+KMYW3DWUQcfyzCSY96sxW/STfYDAjYSBevhhJfzeErulv6XnCpuz5V15JaLUmf//9738/twYio/HAcKLYDcRLMaFeCtEb7/HKNx5An1Pxp5Q/IRGpaYAimQBwj6CXuAeZcMdVuDp7OP/UOce7c5aQ728BNTzVn2tc/Y19vOqBoc2jNzH98MMP/3c2RuNBrkhTkSXwksrnexC98cafu//mr+Rb/9MnJng6sLdH4MOQN9xVuDq7l10DEeqc4905S8j3aQDHVw8AJBPg6m+jqfzj/xb4UzH/4Q+//4nao88I0vNYAi8eCulg0Rvv8cU1HvDsHl7VTQMh85SaAPROBw4sE2TyDDy6CucOgjr7AKucAeqc4905S8r3O50gsQJd/W2UlX9c9e7EAw888hLwovTeYkn+WZxye0VP/c2NDHfoqOPFNx7w7b0iY5b+6dqK/xieC08ek7ivcCxDHsbBg+hDQEwXakad2aqfBo9QLDNdBbzcjmxP8ZWR098q79Fn3xPexMnER9EurnAEmwr8y6Uteuq/uQDJRI4IXo6gWvsyVYseS4wHR5Fhf5aGWQGwlX82jfe5ROFeGnbEiDDbrlLKr/pp8EgBouChAl72gOS4Kn9y66mw/GphkKnAv1y6oqf+mwuQTOSo46UO/WsmAJmmFz/WUbhdyqgzW/XT4GHjtchfES+zPrp197dzRI8rjXzDodBU5J+Xruip/3rB4YgYdbzU1X8rTQDqKtzwfdSZrfpp8DBYDXGHwMuVLvp197dzTG+/q4122BD8s8kkftFT/03AEOAZdbzU2X9LTwDqLJyyGHVmq34aPALGjCTJkHi5OCHU89Td30aA3mOybbSfh+SfTSryi5767wAocgJGHS91999SE4C6Cx91Zqt+GjxyxoqBqBrwwkt/ElN3fxsReucnDcx4auBfiqLoqf+mAFHwMOp4qbv/kh3BE4C6Cx91Zqt+GjwKxotUdE14ST7eXXd/GyF6SRttBtbEv4Sk6Kn/JmAI8Iw6Xuruvz2WtFzXAQ+wK75ViHMFnuExpvoXx0ad2aqfBg+D8hC3Rrzwoo68V2u3w6t+RSw7m01QI/8i0qKn/pvFWN7zqONlE5R/C3f/tGdnZ7tBKwDxrUJS/gCKPmKS15MQN+qdacTrd6Luzj6C9B6xITTi8hCeISx90dVGbL5/M/A8OTkJPV2P/kXtW7z117SicALQwVVe9q1Cw3wkZDOYo1vGdMuYAXORO+r4Q1+7fws/ylPEroH4miYT9xnCoy4P1U/K32A1xN0svKTLrr7yDjqtubm5SfvW39wJQDwY2cVXL3yzmKMrh3XlsI1Qn3874A93cdxb10y/JmWdsLNGesskuh3koT8X+nORdIACz1bgeZg/36z+/Pz81MzMTLKUgDr7twDa0X2+SVpkl/IvwEASvRVg0LJcwu5Cz3aRxyWXXHIHGtP7gHf1/lajso54WyM9nnG4fbvIQ38u9OeicHBBgq3A8zD6l22APm+trKzYCp3BzglAi4kZa0x8q9BGpQNIW8EcKUMjqWJX8hjdZc0rrrjiJJTtrcN09hqVdQSmmul9APg7o3/W+mddPFLFKTRexXyoesU3c3Mln/3YGN76u7CwEP3RyG4BRHsEJqFxeasQLvYxj8GuhDe6ysYIUZMnw4lidyvwjHMAi1U7e83Kuva3EcDhf5Lyl/Iv7mlxiq3ob9th/FtbW9uoon/jt/d43q+v/JeXl7u9W38jJqcmADwdaO8RxP9EqPxDRdZPx8FInV2dvY+IfJ86ezxZBJf+CJ29+B7PDDtHXfmjfmuXXXbxG7WsrmX1DHSdjxoP+n8eqyn/Fpb9k8P+EY+np6e7S0tL3IZLNHoyAcB7gR37dCBz8J9IFcPBCNsIbXV2dfYQ/Kiz9zv76dOnPw2e/Z8Qvpk020D541Wyyb/44i9+Bg45xmY7/PM6eFD918grz1X/7fdf8KK00qybf2Y8sFb9oxX8xcXFVcgxUf6UqZkA9NcIepLe2CjdjiinKfz/tne2MXYdZx2/d3e73l2/4A1du07spGxKSNkCRkaNG+wGFLfq8qmtQkwqCki0ArWgRuJFBSqQKHxAiYSAyqFAi1NBKdpUqBWKEyMCLYndUKxSZJwQ48WO6o0dx964dna96929/J9z78ydM2dmzty33XvP/o8095x5OTNnnvnNPHPnzJlJ5hDW4mJlrwki4tRuGBhfd1XOyPL4JFC5EoFL24fpVf01hw1bn5PQ/9q2bds/rfLD9kBJIv8cyUt+RLUQjK8n24Po8vXVX+hzUfwp5S+RJh0AQKE7APKOoBY4OlEV0JU4K7uSTv6ZlbPYlbOB8n0FtHwIJlkZ0EeOq761rqylSdDNAa5b/hrhJoYef/Huu+++JPlgeyBSiDsa4CUqQsZXbP7c7UF4JF+NACQAyezA2juCKKDMQK7EWdlNCYWvWTmLXTmbKN+nQcwDMHMuclz1rQ3KGkm1U/n3vzE0NPxhDKV/TfLA9sBVkm63JnhxR1RzZXzF5s/VHlS/3gtPJ0p1AGqzAzPDBEGy4OlKXN4g8B1anuSq/qycxa6cLZTvV0DIj8EcM0ly1bduU/4DA/3Htm7det/evXufkmen8jdLMHzdAi/OiBlfsfnztQfy9V7eobr7cjYV/3dgvy3vZvH3JY4JhGcwe/FtMXGYYQhrsWFl+TZdvj+FevIx1Lf34rveN7X3n3rbhv1v4vme3rRp6PP33PPjz6h6TeWvJJF/Zv1oun4kwi2o/M4ic3e46AnoX/vT/XO4/612HGo3QFP522G89gYS98ZhehS08Mwspq6ZX1b2FBBhy5Pg5akvfvGvdszMvH4vvg3ejbk6b0Mn+y1LS8ubcR7C7akRvXB0qvPe35eeLZy8M8z77lhmCN+AmYWZgZEVDE+Mjo4ewz/+Cr/+4dcD4CH3YPvXWvvXDv2rRgDswsodAYhI/AwijR4BIAytwUD5UX52JQ7ZyQt5CfFh+5GXNeXlLMojNQIQoX/tInSOADT0j0HF2ETi6lbnmXCtKVyZMmF5sDwyUAQcyAt5CeCR8SIvrfHSTv3bcAegnYkLGYShNRgoP8ov08IGHMgLeQngkfEiL93FS7v1b0MdgHYnTri6Cy6WB8sjowECDuSFvATwyHiRl9Z4abf+lQKK7gC0O3HC0BoMlB/ll2lhAw7khbwE8Mh4kZfu4qXd+rdW4GX1FUAGANNBZgnLloLt+vSIcHUXXCwPlodZ3/OuyQt5yWPE9CcvrfHSAeVfxt4/fRMTE5WoEYDqrkLmBwPNLw9KGFqDgfKj/MzGNe+avJCXPEZMf/LSfbwMDAxAT7dH/6Ksy7Lrryrz3A4A9ifHYj8quJyp/E1phK5ZmbqvMnGLam5RHaqzph/rL+uvyUPedad4SafbvP5FPOU9e/YMmLv+BizMgT8AABeESURBVDsA1WF/M/nmE++UcLjoCBcdMQn1XZM/NuY+Nlzu5IW8uLjwua0GL638+ZbnnpycHBwfH9d/5/HM/lcAfcl+vjosbqfy9xW+7b4aMHB5VVvqfjvLg425n46sD3khL1kq/C6rwUsr+leeHPq8PD8/byp0ca64JgGWq8pf/KuH7CqEZUfttYWVd/C8GsKhMgwWQcqT5cHGLQVEjoW8kJccRFLe5KX9vIiAsbdOU/pX7q1N4NfL/cuuv1NTU8lOQfYrgOQdAe5J7UMuuwphrXGJq5FjhDC0HwZ2duIRJH/kL54WLkomsmL7Ek/MarUv2PdjpAn9m8zdkzl8MoEQXxIsSs6mp6crtV1/k4ymOgAyO7D2juBa4psM+4vyr9oa+UWC25944vExvqPnO/oYblarMnGL6pjSoDIUKVEZxrEioVh/O8PLsWPH+qH8vze+JKoh5dPB6td7VTtG8K8PDw9XTpw4IX/utUbXHQB8F9ivZgfi5tfkNhl2aOaQxDHs0Hfu3Gv3qPtZmZQk8s+sTJ2pTFT++exJCPJH/uJIqYYiL53j5erVq3sbKQsJW9O/qa/34PbqkSNHZBRAK38JqzoA9uSAl+WdfzOHSlyGHRYWFj4gcVD5x0uSlYm8xNNCZc32pRFayEsP8vJgIyVs6t/6fRV5hX8W9pTyF/+kAwClozsA8o5geXn5BfFs9LATRyfi4IsvfnuM/7ziJEnlT+UfR0o1FHkhL+TFL4EC1I+dyN1D/hymfWz9q3xlJB+62KnT1QhAElZmB9beEZxQN8ee3YlXhmdmLv8+CqLh4YQCFF6s6JJwzC8b80aAIS/khbz4JVCQ+vHHyOEGfy7rPi79K3P38GdeBfqWujDPqQ5AbXagDBM8D6PvNG9wXbsSl9GGWs9DejAfdd3ncytI4fmyl3FnftmYZ6AIOJAX8hLAI+NFXnqSl4+jIB/IFKbDwad/5eu92iHv/r+pLOZZDf3L2X4/8Bzc7jUDu659iVvfLcqTfATmsCsO042w9iSsZhEGr1m+LN8gIJYneSEvFhJBa0F4EV35WZjUH3RXxiP17zO4937X/SoBW/lL2K+4bjDdIhOXW+RjxL+GeQxmC4zzKEjhOfPmcmR+2bi5uPC5kRfy4mPD5U5eeo6XrSjHv6wZpZtdRZu4NaB/vbpcjQC4ErkDjtMwzgdpIHE7bvnE8DMwfwNzRnkS1p6DVRVd1Jnly/KNAqUWiLyQl3XEy53I68/CyLB/1Df/Dehf+e5/F8wFmMwR6gBI4CMw77PvaiBx+1bb/h04vIT4rmLFIqxA3KefB7MW5WuEZXy+4BqdsONJ2RFfGfFJhIyP8kux4bKQl2Spb9Y3FxwON/JCXhxYeJ08vMgEvc1onu/Cjbd5b3Z4ID61vK/h692rR/79v98ImLrUCjLlWre8F5dP1631RQbkO//64U28HsRz1WBmPLHUnRmfyILlUScifEVeyEuYkLQveSEvaSLCti7g5SfwhF/zPaWpxX1h5IuAd4pnF2TG94yJO59PxEDlH4TE8CQv5MXAIfeSvJCXXEiMAF3Ay9fxOPcZj5S5dL7ft0J9UuxdkBnrsdJWPp/Ig8o/TYXfRl7Ii5+OrA95IS9ZKvwuXcJLorv9T5laLdgfDJmZwht1fJNoDhhQ2fgllvbpEhjSD2XY+HwiDPJsIBG8JC/kJQiI5Ule1oSXLyDVn7eKQlnL2Punb2JiopI7AiCzccfGxtCTKF9Rd7OxrEsi74rwi4SoXPM4Uf7khbwoFmLO5IW8ODh5FW6/5nAXp7Ls+qv8gh0AUf7YjnB4z549lzZs2PCr1ZvYmCvh5Z1ZOUVC5CWPE+VPXsiLYiHmTF7Ii4MT+WruF2CSHX0t/zJ0+YDa9Vf8dE/ACijWMvYGGJ6fn+/Dbn7lW2+99fS5c+eG8OnC3ia+LOMcgkTAVIYOzpxObNxELOTFCYfDkbyQFwcWXqcC8/JpZFoWE7KP8uTk5OD27dtLs7OzpdHR0cqhQ4cqvg6ADBPIJgR9UPhl6QDgs/rSjh07njx79uw74P52O/aQvcDCdmab+RWxUHk54XA4khfy4sDC60ReyIsHji/BvTZSXw8hI/mwbVhaWipv3LixojoAp06dWnG9Akh6CgsLC3rGH0YBVmRLX2wWJKsKfQjmaD368BVhFflQGYYpqfuSF/JSpyH/iryQl3xK6iEKzMuTyOXPwaQWzhPljx1+h0x9Lrv+Tk1NJTsF2SMAyTsCWZJP/vnjvX/yz3///v3ziEht6Ss3TsH8MMwPwHiPAgvbmWfmV8TCzo4TDocjeSEvDiy8TuSFvHjg+DLcH4S5afqrOXyiyxcXFysDAwOlixcvrhw/fjxR/hI2NQIgswPHx8f1P390ACr33nuvqfxV/Au4+CDMnyoH+0xYRSJUhjYXPjt5IS8+Nlzu5IW8uLjwuRWYl0eRZ1H+suWvPkT5Y8R+BIpf6/Ph4eEKRgNkFF+PEugOAL4L7DdnB4ryx4zBG8Y/fx157UJ6EZ+A+TDMtZpbciqwsM1s6mvmV0TBzo4GIueCvJCXHERS3uSFvKSAqFqu4nQQ5jdg1Oh84iPK//nnn98Eha/1u+jzI0eOSCdBK38JPJDckV7hpyQ9BQmMHkQqcC2sfZJd/Z6D+QuYA4RVxENlKFKIOciLSIm8xLAiYciLSIG8iBRijoLy8hTy/ssw52wZKOV/8+ZNmbyf6G9R/kePHpVR+4w+T3oIuEkPE0xPTzt7CnZClv3/YH8PvhQ4iOkDZ9P9CcJqycprLSiszG9NAixfEQTbA2+FsDzIC3mxkDgN+wdgJmGCyl/dNzg4mIzkw55R/hImmQSId//lS5culfGZQKk2QcAZWEXqOkvPY2ho6OWtW7d+7vLly+ewne+dSPPNy8srJa4b4JJY2o2VXeRB5ZCmwm8jL+TFT0fWh7z0NC//haf/TZhfgnlBcmIf5j9/5Yf3/yvWBH7lpc/6HYG4YMhf3us3pfzlnYMMO2zZsmUJEwf/9sCBA/csLS2/G8r/McR5QeKPPQirSIrKkLy4JcD6wfrhJsPtSl56kpcZPPVnYN4F8yMwX4DRs/dxrQ+X8pfhf/yxn4Nfan6Avql2oYb+5dyw4pc4fInLugFG4hL/D8Hsh9kDMwHzVpgxGPUMuOQ7vkQIVP5VMUT8snETIbGzGIFKEoS8kJdYViTcKvAiCvoyPtWbxp/l/8b1CZivw5yEyT0i9a83npTy9YbyeLSaOKKVVxCbYJJVB0dGRvpuuWXjSKUyqEcmyuXFlStX3pjDEezJuB6R8QnAlJ+LDZcbeSEvLi58buSFvPjYcLmbvKBjsYLJeQu7du26hn/q3zX+LLtudbq1Qf+m/307U/E4tiNxM2rGVyrJsI01cmKKKHhN+VF+QUAsT/JCXiwkglbyUkxemhoBIAzFhEG1ACxflq9iIeZMXshLDCcqDHnpHl4a7gCw8Lqn8KRCsTxYHqphjTmTF/ISw4kKQ16KzUtDHQDCUGwYWL4sX9Xwx5zJC3mJ4USFIS/dxYuUS3QHgIXXXYXH8mB5qIY15kxeyEsMJyoMeSk2L7VyLkd1AAhDsWFg+bJ8VcMfcyYv5CWGExWGvHQXLyiXMvb+6ZuYmKiovQBUWWXOUniyqxC2EtSdBc5Wz4jJ60D4uwt+lgfLw1tZHR7khbw4sPA6dTsvePCy7PqLc7Luj1bqrhxJZo4dOzaMNf77ZZU/CbNKyv/tSOqdMLfBDMI4D+w7UB4cHIB/n5GPlcri4tIiliJueGGjJuKTNGRXpv+BeRYmtStit8PA51s1noFG/sHyYHnkU1IPsV55OX369JYLFy68C0vXfz+ksQlL3t5cpfa+LnzHlVt/lBZu3rxxZnm59A3c8pLjNq9Tu8sXCZWxw2/yp398fHwlbwSgjL2Dh2Q/YewOmDzkKij/h5DQb8O8I0kw8CMrNEH/l5aWZH0gtUZQayuitRjfDTzIl2B+D+bldhce46NyAFfRB3khL9GwIGAv8PLYY3/yg7Ozb3wKyv79eGQsHrem7X1KvGF9pIN+G1d/APOEdvFctLs8kEx5cnJycNOmTRXZ8E+SRRqVZDMgxzPIMEGyOh+WKJRtBcsYBCh1cJEa6WH8PcynYLY5nifltArLMyK9huGSntVumI9AVqewMdKMGjWRh1+FzpMkE3W0Gy7Gx/KNAq8WiLyQl0Z5eeSRRx66dm3uq1gu90dxL9rahttnneQa6o+34CEehJER7n+EWYLJHJ2oH0hkA0ZMyhs3bqzMzs6WRkdHK6dOnVrRS+4aT5H0FBYWFvSw+vz8/EoHlb88w5dhPmg8g/dyDQvP+0ymB55vMwYnnnj22WfvV+5U/koS+edOwK82qlKpszyUJPLPLA8q63xK6iE6wcujj/7RA9BHjyOVkWpKPan860IqlQ7CIqPFWscqz07IT0byTX2+efPmytTUVLKxkD0CkLwjwLuMPvnnj7WKk3/+eVsKqoe3z5GZ+QTu+xX7Xpe9B5R/qb9f+jPlPvS2fhK91ce3bdt2o4OdJ5eYvG6R5eG93/ZgfFQONhMhO3khLyE+bD/h5fDhw7dfufL6V+G3serf88pfZfNuXFyA+Q/l0In6IXP4RJfjVX4FE/lLFy9eXDl+/LjeVTA1AiCzAzE5QPdK0AGoYGvfeTyYesmunjX3HJmZIUT0O7mRIUAPKX+VnW3nz5//KJW/Ekf4HMlLOBLDl/FR2Rg45F6Sl+7k5ZVXXvkYCu+WagEWRvkrHn8XF28SSyf4k6/3ZA6fSgxz+SoYDZDXDnqCvO4A4LvA/mvXrunAovwxY/AGHqxTyl+e630wb5aL0NGDyh/ZqZQw7HKww/ILiU37dQIuDqtz4yYNWM4F+etO5doLc5Qw4e9nqngVTvlLtnbAHOhU/YDC1/pd9PmRI0cWkZ5W/vIAyScBOGvFL47SU5DA6EGkAotf3tFgZvbnxderyn95eaWEVwB3IX8yqfHVvHwq/wblp27znhkfG18vHA4P8kJeHFh4nTrJy8mTJ3eiDd3VoxP+vDIzPfC2/d34M/VcJzpjMtdJ0hLlf/To0QVcZvR50kNAIeoOgHwi4OopmA/tu24Chu/zxSXuPa78VdbG1UXeuQn5BaNkfGzMg4BYnuSFvFhIBK2d5mVubu6OIit/0W/oANzVCeWvCm5wcDAZyYc9o/wljB4iEIvMDrTfEYh7zNEkDDIHwHkURPlL3mozV53Z1I5Nyk/fb18wPjbmNhMhO3khLyE+bL/V4KVSWRqsjaTayefae0V/oAOg9UO7v06Sr/fy5vCpVwCJQDHkL7MDnT2FkMRbgOG7rnh7pfDSb06876hmXXk03VqQnxmNvmZ8bMw1DBEX5IW8RGCig6wWL/Pzc69WGtZGPTdy/LoItt3KX+Lbt2/fHMoqOIcv6QAgkIg5GFCXvnXRIgwvWtEVZdhfZUs6VKeVxXVuUX6ZKBlfZyoTv+bIoOZ0IH/kzwmGxzHEC15Fv4DbRDfpV9SeaLRzr/15xAjAS51Q/rHtlXoF0EQ/qy2fLvyTLjkpZbwTqX1Hbzh7/1kbYdyXXRDfN/Bk191P1xb5paIOVSb4NdzBY3xszFOA5VjIC3nJQSTlHcGLjJ6eSN0UsHRBex94Ord+GxoaeCZWWduRR8jPviVjVx2AjEeeQzsSRxrPwZyUtHqx8CImqPy55M11tEl+OmrGx8ZXwxBxQV7ISwQmOsga8vJZ/RCBi97UH6X/fPjhX/83yHbN/pxFD62Ysm8zDO9B4T2Nf/54FvNxevqfv4jrmzB7YTKF22b5lRgfG3MBLvYgL+QllhUJt8a8yGtqaUtlnxXn0ZvKvwK9UL4fK8b+qzNTAcd2lkfDIwDtTFzyiPj+Gd8p/mHBlP8MsvbTMFT+WM6TiwZx0SCp6zFHB9oX8ocJYWs5zGyWexPlKyvXPQBz0YxHXfeo8scutsu/tdbKX2Ro7wWg5Oo8N1F4zniUo4pv586dx7Fs7iWs+nQfhtUHevzTj39H/mSFw3Mqn+qs8tvJ7z7XckKJyqc6M7/8p6lYiDmTF/Li4UTmAvwDzD4YWT0vOXpT+ZfmoPw/jgz8WS0b0ad21w9JOLoD0O7E7fhuv/32b12/fuXvrl+/sVxd/am0OVoyCLjGMEgvVeYzyL4GD8Mkn3bgrA87v+JBZa3Fk3tB+ZGXXEiMAOSlcLxIJ+BzMGdgxtDe34bXxhjB7pnXxjN45sfR5j+Ef/7/YqAaddlunmuJYtp9xNHuxCPj24lH2wUzCBN8Tuxy1DcyMohFhQaMcEuVubnFGxB2Zhg+L8sNxCdxi7L/X5g5X7yR+fXdnnFnfIVr3FJlzPJl+aaAyLGsR16mpg5vm5m5eid2uvseiAft/qq09zklUfU29QeU/sLIyMj53bt3n++W1zAiL+z90zcxMVExFKY7bwKX7CqETOnRAv5zdcvK5boeKyff+ff0O1cXxtqNPLNzomGIuCAv3cULiqwsu/6OjY1VpAMQnAQohSf7CZu7ClH5R1BfC0L4uwt+lgfLI772rvns99xHJc/kOReSdIAydvgdMHf91f/q0+ESWxl7AwxjPeE+KP0yJuiVqfwdUvI4sXKycnrQcDqTF/LiBMPjSF7IiwcNn3N5cnJycPv27aXZ2dnS6Oho5dChQ94RABkm2ID97PUrAip/n1yz7qycrJxZKvwu5IW8+OnI+pAX8pKlwu8ivIg+x595rc9roZ0dgKSnYCp/2VWoWyYwEH7C70c960NeyEuWCr8LeSEvfjqyPr3AC3b4HTL1uez6OzU1JfvUlFK7AcKevCMwewqyn3DeloJZsVRdekE4nLDGCWs+fm138kzlYDMRspMX8hLiw/brBC8yh6+WTrLfz/T0dAUdgkT5i3tqEqDMDhwfH9fDBFihj8rfLiWPvROFx84JOyce3DLO5I/KJgNFwIG8FJ8X+XpvcXFR63NM5hflL2vW6M3/dAcA3wX2m7MDRfljxuANgNLwd/SEq/hwsXPCzklAv6S82B6wPUgBkWMhL+3hxfx6T/Q5tldehOi18pdiUK8AdC9BHKWnIIHRg0gFFr+8g4XXnsLjcsH3XAdL7HzmVDjWN9a3HERS3uRl/fAiE/el8EX5Hz16dAGXGX2ejAAACt0BkHcErp5CiiKPhXCtH7gUAvw6REki/8z6wfqRT0k9BHkhL3Ua8q9cvMgcPhnJx90Z5S8x6lcAYpHZgfY7AnGPOVyJUznESK4ahvJjZY+nhYvUiKzYvsQTw/Zl/fEiX+/lTeBXrwASkjDkL7MDnT2FEGqEa/3BxcY3VCPSfqwfrB9pIsI28kJewoSkfX287Nu3bw5+wdeoauhfzg0rfnkMX+JcNyBdSD4b5cfK7mPD5U5eyIuLC58beSEvPjbEXXUAQmG8foSLcHnhcHiQF/LiwMLrRF7IixcOhwd5aZyXpjsAFHbjwjaZpfwoP5OHvGvyQl7yGDH9yQt5MXnwXacmAfoC2e4ClywyIO7yLljM0tLScivD/oyP8rM589nJH+ubjw2XO3khLy4ufG7riZeGRwBEOLK8oLnCUKvLBTO+1pZbpvwoP19jZruz/pZKbK9sKvx28lJsXlJfAfgxqPoIDLKxgNikEsm51RUDGV9rKy5SfpSf1MOYg/WX7VUMJyoMeSk2L1LOjYwAZLYIFuWPoXvnCkMKosCZ8VF+ATwyXuSFvGSgCDiQF/ISwCPjtd54EQGUYzsAyRbB5i6BarlgRNLM54OMr7bcMuUnHOYe5IW85EJiBCAv5MXAIfdy3fGCvX/6JiYmKjEdgGSLYHOXwNqWgqldhXJFXA/A+KpbMlJ+dSZCV+SFvIT4sP3IC3mxmQjZ1x0vsuvv2NhYJaYDIMMiqV0CZbngZlcMRCkwPsovVBltP/JCXmwmQnbyQl5CfNh+65YX/KFfye0AyBbBtsSmpqZkueCmDsZXKlF+8eiQF/IST0upRF7IC3nxS8CuH9BFK6GvAMrSQ1DRYUaoXGu7cm/gzPgovwZwKZEX8kJe/BJg/WD98NOR9XHy8v8RH95CMREuhAAAAABJRU5ErkJggg==;" parent="1" vertex="1">
          <mxGeometry x="338" y="624.92" width="152" height="152" as="geometry" />
        </mxCell>
        <mxCell id="FIquFdigFKZRtTVGUvSn-55" value="" style="shape=image;verticalLabelPosition=bottom;labelBackgroundColor=#ffffff;verticalAlign=top;aspect=fixed;imageAspect=0;image=https://www.clipartmax.com/png/middle/24-245540_speakers-clipart-loud-sound-speaker-clip-art.png;" parent="1" vertex="1">
          <mxGeometry x="415" y="650" width="150" height="126.92" as="geometry" />
        </mxCell>
        <mxCell id="FIquFdigFKZRtTVGUvSn-61" value="&lt;i&gt;raw&lt;br&gt;D.I. signal&lt;/i&gt;" style="text;html=1;strokeColor=none;fillColor=none;align=center;verticalAlign=middle;whiteSpace=wrap;rounded=0;" parent="1" vertex="1">
          <mxGeometry x="290" y="620" width="40" height="20" as="geometry" />
        </mxCell>
        <mxCell id="uR6YrYAV0_t1huVU92yW-14" value="Improv Brain" style="swimlane;" vertex="1" parent="1">
          <mxGeometry x="930" y="286" width="210" height="210" as="geometry" />
        </mxCell>
        <mxCell id="uR6YrYAV0_t1huVU92yW-15" style="edgeStyle=orthogonalEdgeStyle;rounded=0;orthogonalLoop=1;jettySize=auto;html=1;exitX=0.5;exitY=1;exitDx=0;exitDy=0;entryX=0.5;entryY=0;entryDx=0;entryDy=0;" edge="1" parent="uR6YrYAV0_t1huVU92yW-14" source="uR6YrYAV0_t1huVU92yW-16" target="uR6YrYAV0_t1huVU92yW-17">
          <mxGeometry relative="1" as="geometry" />
        </mxCell>
        <mxCell id="uR6YrYAV0_t1huVU92yW-21" style="edgeStyle=orthogonalEdgeStyle;rounded=0;orthogonalLoop=1;jettySize=auto;html=1;exitX=1;exitY=0.5;exitDx=0;exitDy=0;entryX=0.5;entryY=0;entryDx=0;entryDy=0;entryPerimeter=0;" edge="1" parent="uR6YrYAV0_t1huVU92yW-14" source="uR6YrYAV0_t1huVU92yW-16" target="uR6YrYAV0_t1huVU92yW-19">
          <mxGeometry relative="1" as="geometry" />
        </mxCell>
        <mxCell id="uR6YrYAV0_t1huVU92yW-16" value="Parse new note information" style="rounded=1;whiteSpace=wrap;html=1;" vertex="1" parent="uR6YrYAV0_t1huVU92yW-14">
          <mxGeometry x="40" y="30" width="120" height="60" as="geometry" />
        </mxCell>
        <mxCell id="uR6YrYAV0_t1huVU92yW-17" value="Classify note event" style="rounded=1;whiteSpace=wrap;html=1;" vertex="1" parent="uR6YrYAV0_t1huVU92yW-14">
          <mxGeometry x="40" y="120" width="120" height="60" as="geometry" />
        </mxCell>
        <mxCell id="uR6YrYAV0_t1huVU92yW-22" style="edgeStyle=orthogonalEdgeStyle;rounded=0;orthogonalLoop=1;jettySize=auto;html=1;exitX=0.5;exitY=1;exitDx=0;exitDy=0;exitPerimeter=0;entryX=1;entryY=0.75;entryDx=0;entryDy=0;" edge="1" parent="uR6YrYAV0_t1huVU92yW-14" source="uR6YrYAV0_t1huVU92yW-19" target="uR6YrYAV0_t1huVU92yW-17">
          <mxGeometry relative="1" as="geometry" />
        </mxCell>
        <mxCell id="uR6YrYAV0_t1huVU92yW-19" value="past&lt;br&gt;notes" style="shape=cylinder3;whiteSpace=wrap;html=1;boundedLbl=1;backgroundOutline=1;size=15;" vertex="1" parent="uR6YrYAV0_t1huVU92yW-14">
          <mxGeometry x="160" y="70" width="50" height="60" as="geometry" />
        </mxCell>
        <mxCell id="uR6YrYAV0_t1huVU92yW-23" style="edgeStyle=orthogonalEdgeStyle;rounded=0;orthogonalLoop=1;jettySize=auto;html=1;exitX=1;exitY=0.5;exitDx=0;exitDy=0;entryX=0;entryY=0.5;entryDx=0;entryDy=0;" edge="1" parent="1" source="FIquFdigFKZRtTVGUvSn-14" target="uR6YrYAV0_t1huVU92yW-16">
          <mxGeometry relative="1" as="geometry" />
        </mxCell>
        <mxCell id="uR6YrYAV0_t1huVU92yW-26" value="" style="edgeStyle=orthogonalEdgeStyle;rounded=0;orthogonalLoop=1;jettySize=auto;html=1;entryX=0.75;entryY=1;entryDx=0;entryDy=0;exitX=0.481;exitY=0.025;exitDx=0;exitDy=0;exitPerimeter=0;" edge="1" parent="1" source="uR6YrYAV0_t1huVU92yW-24" target="uR6YrYAV0_t1huVU92yW-17">
          <mxGeometry relative="1" as="geometry">
            <mxPoint x="1010" y="506" as="sourcePoint" />
          </mxGeometry>
        </mxCell>
        <mxCell id="uR6YrYAV0_t1huVU92yW-24" value="webrtcmix" style="whiteSpace=wrap;html=1;shape=mxgraph.basic.cloud_rect" vertex="1" parent="1">
          <mxGeometry x="1030" y="550" width="120" height="90" as="geometry" />
        </mxCell>
        <mxCell id="uR6YrYAV0_t1huVU92yW-34" style="edgeStyle=orthogonalEdgeStyle;rounded=0;orthogonalLoop=1;jettySize=auto;html=1;exitX=0;exitY=0.5;exitDx=0;exitDy=0;entryX=-0.004;entryY=0.607;entryDx=0;entryDy=0;entryPerimeter=0;" edge="1" parent="1" source="uR6YrYAV0_t1huVU92yW-17" target="uR6YrYAV0_t1huVU92yW-24">
          <mxGeometry relative="1" as="geometry" />
        </mxCell>
        <mxCell id="FIquFdigFKZRtTVGUvSn-51" value="&lt;i&gt;raw&lt;br&gt;D.I. signal&lt;/i&gt;" style="text;html=1;strokeColor=none;fillColor=none;align=center;verticalAlign=middle;whiteSpace=wrap;rounded=0;" parent="1" vertex="1">
          <mxGeometry x="30" y="585" width="40" height="20" as="geometry" />
        </mxCell>
        <mxCell id="uR6YrYAV0_t1huVU92yW-35" value="" style="edgeStyle=orthogonalEdgeStyle;rounded=0;orthogonalLoop=1;jettySize=auto;html=1;exitX=0.5;exitY=1;exitDx=0;exitDy=0;entryX=0;entryY=0.5;entryDx=0;entryDy=0;endArrow=none;" edge="1" parent="1" source="FIquFdigFKZRtTVGUvSn-48" target="FIquFdigFKZRtTVGUvSn-51">
          <mxGeometry relative="1" as="geometry">
            <mxPoint x="186.66499999999996" y="705" as="sourcePoint" />
            <mxPoint x="80" y="346" as="targetPoint" />
          </mxGeometry>
        </mxCell>
        <mxCell id="uR6YrYAV0_t1huVU92yW-38" style="edgeStyle=orthogonalEdgeStyle;rounded=0;orthogonalLoop=1;jettySize=auto;html=1;exitX=0.5;exitY=1;exitDx=0;exitDy=0;entryX=0.75;entryY=1;entryDx=0;entryDy=0;" edge="1" parent="1" source="uR6YrYAV0_t1huVU92yW-17" target="FIquFdigFKZRtTVGUvSn-7">
          <mxGeometry relative="1" as="geometry" />
        </mxCell>
        <mxCell id="uR6YrYAV0_t1huVU92yW-39" value="" style="shape=image;html=1;verticalAlign=top;verticalLabelPosition=bottom;labelBackgroundColor=#ffffff;imageAspect=0;aspect=fixed;image=https://cdn1.iconfinder.com/data/icons/feather-2/24/speaker-128.png" vertex="1" parent="1">
          <mxGeometry x="546" y="556" width="94" height="94" as="geometry" />
        </mxCell>
        <mxCell id="uR6YrYAV0_t1huVU92yW-40" style="edgeStyle=orthogonalEdgeStyle;rounded=0;orthogonalLoop=1;jettySize=auto;html=1;exitX=0.5;exitY=1;exitDx=0;exitDy=0;entryX=0;entryY=0.5;entryDx=0;entryDy=0;" edge="1" parent="1" source="FIquFdigFKZRtTVGUvSn-7" target="uR6YrYAV0_t1huVU92yW-39">
          <mxGeometry relative="1" as="geometry" />
        </mxCell>
      </root>
    </mxGraphModel>
  </diagram>
</mxfile>
